<svg xmlns="http://www.w3.org/2000/svg" width="86.656" height="35.534" viewBox="0 0 86.656 35.534"><defs><style>.a{fill:#16355d;}.b{fill:none;stroke:#16355d;stroke-miterlimit:10;stroke-width:0.457px;}</style></defs><path class="a" d="M8.573,4.779H.158V2.38H12.8L4.243,19.006h8.6v2.4H0Z" transform="translate(0 -1.168)"/><path class="a" d="M78.18,2.38h2.725V19.006h8.186v2.4H78.18Z" transform="translate(-38.356 -1.168)"/><path class="a" d="M109.67,2.38h10.656v2.4H112.4v5.557h7.218v2.4H112.4v6.271h7.931v2.4H109.67Z" transform="translate(-53.806 -1.168)"/><path class="a" d="M151.34,4.929a8.389,8.389,0,0,0-3.571-.79c-1.523,0-3.321.545-3.321,2.532,0,3.652,8.176,2.807,8.176,9.077,0,4.06-3.138,5.669-6.953,5.669a12.758,12.758,0,0,1-3.9-.79l.275-2.532a11.539,11.539,0,0,0,3.953.927c1.554,0,3.734-.871,3.734-3.107,0-4.253-8.176-3.082-8.176-9,0-3.377,2.669-5.18,6.108-5.18a12.691,12.691,0,0,1,4.06.683Z" transform="translate(-69.452 -0.854)"/><path class="a" d="M41.718,5.873,48,20.238h2.756L41.687,0,32.62,20.238h2.812Z" transform="translate(-16.004)"/><path class="a" d="M50.585,28.16l-2.847,6-2.847-6Z" transform="translate(-22.024 -13.816)"/><line class="b" x2="83.05" transform="translate(0.132 35.305)"/><path class="a" d="M.171,49.38H4.215L4.251,50.6H4.083a1.432,1.432,0,0,0-.321-.749,1.3,1.3,0,0,0-.815-.173h-.4v3.662c0,.275.041.448.127.509a1.18,1.18,0,0,0,.565.132v.132H1.154V53.98a.967.967,0,0,0,.565-.148.921.921,0,0,0,.112-.576V49.681h-.4a1.34,1.34,0,0,0-.81.173A1.283,1.283,0,0,0,.3,50.6H.13Z" transform="translate(-0.064 -24.227)"/><path class="a" d="M9.81,53.98a.973.973,0,0,0,.525-.153.938.938,0,0,0,.107-.571v-3.1a.745.745,0,0,0-.117-.5.876.876,0,0,0-.509-.143V49.38H11.8v.132a.876.876,0,0,0-.509.143.717.717,0,0,0-.117.5v1.4H13.35v-1.4a.745.745,0,0,0-.117-.5.882.882,0,0,0-.514-.143V49.38h1.987v.132a.9.9,0,0,0-.514.143.745.745,0,0,0-.117.5v3.184a.727.727,0,0,0,.117.5.923.923,0,0,0,.514.143v.132H12.719V53.98a.876.876,0,0,0,.525-.153,1.012,1.012,0,0,0,.1-.576V51.861H11.17v1.472a.727.727,0,0,0,.117.5.917.917,0,0,0,.509.143v.132H9.81Z" transform="translate(-4.813 -24.227)"/><path class="a" d="M20.945,53.975a.994.994,0,0,0,.509-.143c.076-.066.117-.234.117-.5V50.149a.745.745,0,0,0-.117-.5.876.876,0,0,0-.514-.148V49.37h3.8l.025,1.024h-.178a1,1,0,0,0-.275-.611,1.524,1.524,0,0,0-.81-.138h-.973c-.107,0-.173.015-.194.051a.34.34,0,0,0-.036.188v1.594h1.105a.846.846,0,0,0,.586-.138,1.208,1.208,0,0,0,.2-.55h.168v1.65h-.168a1.183,1.183,0,0,0-.2-.55.844.844,0,0,0-.581-.132H22.305v1.773c0,.143.046.224.132.25a4.683,4.683,0,0,0,.8.036,2.708,2.708,0,0,0,1.075-.158,1.461,1.461,0,0,0,.621-.769h.2L24.811,54.1H20.945Z" transform="translate(-10.273 -24.222)"/><path class="a" d="M36.657,53.791a.752.752,0,0,0,.357.056,2.625,2.625,0,0,0,1.38-.331,1.883,1.883,0,0,0,.83-1.747,2,2,0,0,0-.688-1.655,2.406,2.406,0,0,0-1.554-.474.676.676,0,0,0-.326.051.255.255,0,0,0-.087.229v3.642a.255.255,0,0,0,.087.229m-1.442.188a1.012,1.012,0,0,0,.509-.143c.076-.066.117-.234.117-.5V50.154a.753.753,0,0,0-.117-.5.852.852,0,0,0-.514-.138V49.38h1.931a3.83,3.83,0,0,1,1.65.321,2.089,2.089,0,0,1,1.217,2.063,2.411,2.411,0,0,1-.219,1.019,2.159,2.159,0,0,1-.657.815,2.321,2.321,0,0,1-.581.316,3.985,3.985,0,0,1-1.35.2H35.215V53.98Z" transform="translate(-17.275 -24.227)"/><path class="a" d="M46.43,53.98A1.18,1.18,0,0,0,47,53.847c.087-.066.127-.234.127-.514V50.154A.7.7,0,0,0,47,49.645a.98.98,0,0,0-.565-.132V49.38h2.119v.132a1.07,1.07,0,0,0-.565.132.7.7,0,0,0-.127.509v3.184c0,.275.041.448.127.514a1.18,1.18,0,0,0,.565.132v.132H46.43Z" transform="translate(-22.779 -24.227)"/><path class="a" d="M55.232,52.185l-.82-1.971-.825,1.971ZM52.15,54.024v-.132a.58.58,0,0,0,.413-.209,5.66,5.66,0,0,0,.474-.968L54.524,49.2h.143l1.783,4.055a1.689,1.689,0,0,0,.285.5.714.714,0,0,0,.357.132v.132H55.273v-.132a1.723,1.723,0,0,0,.4-.066q.092-.038.092-.2a.728.728,0,0,0-.036-.183,1.789,1.789,0,0,0-.1-.275l-.285-.688H53.464c-.183.469-.3.754-.331.856a.806.806,0,0,0-.056.245.252.252,0,0,0,.148.25.988.988,0,0,0,.341.061v.132H52.15Z" transform="translate(-25.586 -24.138)"/><path class="a" d="M63.32,53.985a.881.881,0,0,0,.571-.2,1.267,1.267,0,0,0,.127-.718v-2.9a.72.72,0,0,0-.122-.5.958.958,0,0,0-.555-.138V49.39h1.411L66.4,52.956,68,49.39h1.421v.132a.84.84,0,0,0-.514.148.745.745,0,0,0-.117.5v3.179a.727.727,0,0,0,.117.5.923.923,0,0,0,.514.143v.132h-2V53.99a.922.922,0,0,0,.54-.153.98.98,0,0,0,.107-.576V50.052l-1.834,4.075h-.1L64.329,50.21v2.853a1.142,1.142,0,0,0,.173.764.894.894,0,0,0,.5.158v.132H63.32Z" transform="translate(-31.066 -24.231)"/><path class="a" d="M78.4,53.316a1.359,1.359,0,0,0,1.09.54,1.378,1.378,0,0,0,1.085-.525,3.388,3.388,0,0,0-.005-3.377,1.394,1.394,0,0,0-1.08-.52,1.366,1.366,0,0,0-1.09.54,3.338,3.338,0,0,0,0,3.342m-.535-3.5a2.405,2.405,0,0,1,3.255.005A2.7,2.7,0,0,1,81.1,53.5a2.291,2.291,0,0,1-1.6.616,2.239,2.239,0,0,1-1.671-.683,2.465,2.465,0,0,1-.672-1.788,2.41,2.41,0,0,1,.713-1.839" transform="translate(-37.851 -24.128)"/><path class="a" d="M88.09,53.98a.881.881,0,0,0,.571-.2,1.314,1.314,0,0,0,.127-.718V49.91l-.1-.117a.819.819,0,0,0-.27-.229,1,1,0,0,0-.331-.051V49.38h1.223L92.073,52.8V50.424a1.142,1.142,0,0,0-.173-.764.856.856,0,0,0-.509-.148V49.38h1.681v.132a.831.831,0,0,0-.545.2,1.225,1.225,0,0,0-.138.718V54.2h-.122L89.1,50.277v2.786a1.179,1.179,0,0,0,.168.764.894.894,0,0,0,.5.158v.132H88.09Z" transform="translate(-43.218 -24.227)"/><path class="a" d="M100.8,53.791a.752.752,0,0,0,.357.056,2.625,2.625,0,0,0,1.38-.331,1.883,1.883,0,0,0,.83-1.747,2,2,0,0,0-.688-1.655,2.406,2.406,0,0,0-1.554-.474.676.676,0,0,0-.326.051.255.255,0,0,0-.087.229v3.642c.005.117.031.194.087.229m-1.436.188a1.012,1.012,0,0,0,.509-.143c.076-.066.117-.234.117-.5V50.154a.753.753,0,0,0-.117-.5.852.852,0,0,0-.514-.138V49.38h1.931a3.814,3.814,0,0,1,1.65.321,2.089,2.089,0,0,1,1.217,2.063,2.411,2.411,0,0,1-.219,1.019,2.111,2.111,0,0,1-.657.815,2.157,2.157,0,0,1-.581.316,3.985,3.985,0,0,1-1.35.2H99.365V53.98Z" transform="translate(-48.748 -24.227)"/><path class="a" d="M115.658,52.568a2.651,2.651,0,0,0,.428.769,1.341,1.341,0,0,0,1.054.5.869.869,0,0,0,.591-.214.752.752,0,0,0,.25-.606.856.856,0,0,0-.25-.606,4.509,4.509,0,0,0-.693-.494l-.611-.382a2.195,2.195,0,0,1-.438-.351,1.081,1.081,0,0,1-.3-.749,1.205,1.205,0,0,1,.362-.9A1.3,1.3,0,0,1,117,49.17a1.77,1.77,0,0,1,.586.122,2.555,2.555,0,0,0,.392.122.227.227,0,0,0,.183-.061.385.385,0,0,0,.076-.178h.148l.158,1.523h-.173a1.611,1.611,0,0,0-.56-.963,1.314,1.314,0,0,0-.764-.275.782.782,0,0,0-.509.173.574.574,0,0,0-.219.479.687.687,0,0,0,.168.469,2.271,2.271,0,0,0,.52.418l.632.387a3.135,3.135,0,0,1,.83.667,1.159,1.159,0,0,1,.239.728,1.221,1.221,0,0,1-.423.942,1.589,1.589,0,0,1-1.085.377,2.042,2.042,0,0,1-.693-.127,2.664,2.664,0,0,0-.413-.127.169.169,0,0,0-.168.076.389.389,0,0,0-.056.163h-.158l-.214-1.523h.158Z" transform="translate(-56.666 -24.124)"/><path class="a" d="M124.016,49.38h4.045L128.1,50.6h-.173a1.432,1.432,0,0,0-.321-.749,1.307,1.307,0,0,0-.815-.173h-.4v3.662c0,.275.041.448.127.509a1.18,1.18,0,0,0,.565.132v.132H125V53.98a.967.967,0,0,0,.565-.148.921.921,0,0,0,.112-.576V49.681h-.4a1.351,1.351,0,0,0-.81.173,1.251,1.251,0,0,0-.326.749h-.173Z" transform="translate(-60.822 -24.227)"/><path class="a" d="M134.853,53.316a1.359,1.359,0,0,0,1.09.54,1.378,1.378,0,0,0,1.085-.525,3.388,3.388,0,0,0-.005-3.377,1.386,1.386,0,0,0-1.08-.52,1.359,1.359,0,0,0-1.09.54,3.338,3.338,0,0,0,0,3.342m-.54-3.5a2.405,2.405,0,0,1,3.255.005,2.421,2.421,0,0,1,.718,1.834,2.4,2.4,0,0,1-.744,1.854,2.291,2.291,0,0,1-1.6.616,2.239,2.239,0,0,1-1.671-.683,2.7,2.7,0,0,1,.046-3.627" transform="translate(-65.541 -24.128)"/><path class="a" d="M147,51.5a.865.865,0,0,0,.57-.881.837.837,0,0,0-.509-.846,1.8,1.8,0,0,0-.723-.122.865.865,0,0,0-.372.046c-.046.031-.071.1-.071.2v1.762A3.686,3.686,0,0,0,147,51.5M144.55,53.98a.81.81,0,0,0,.514-.158,1.017,1.017,0,0,0,.1-.565v-3.1a.743.743,0,0,0-.112-.494.85.85,0,0,0-.5-.148V49.38h1.982a2.856,2.856,0,0,1,1.029.158,1.092,1.092,0,0,1,.784,1.09,1.011,1.011,0,0,1-.346.82,1.963,1.963,0,0,1-.947.377l1.472,1.819a.99.99,0,0,0,.275.245.928.928,0,0,0,.346.1v.132h-1.151l-1.788-2.206-.316.015v1.411a.7.7,0,0,0,.122.5,1.014,1.014,0,0,0,.525.143v.132H144.55Z" transform="translate(-70.918 -24.227)"/><path class="a" d="M154.99,53.975a1.037,1.037,0,0,0,.514-.143c.076-.066.117-.234.117-.5V50.149a.751.751,0,0,0-.112-.5A.876.876,0,0,0,155,49.5V49.37h3.8l.025,1.024h-.183a1.035,1.035,0,0,0-.27-.611,1.536,1.536,0,0,0-.81-.138h-.973c-.107,0-.168.015-.194.051a.34.34,0,0,0-.036.188v1.594h1.105a.846.846,0,0,0,.586-.138,1.208,1.208,0,0,0,.2-.55h.168v1.65h-.168a1.183,1.183,0,0,0-.2-.55.843.843,0,0,0-.581-.132H156.36v1.773c0,.143.046.224.132.25a4.684,4.684,0,0,0,.8.036,2.708,2.708,0,0,0,1.075-.158,1.461,1.461,0,0,0,.621-.769h.2l-.326,1.207H155v-.122Z" transform="translate(-76.04 -24.222)"/><path class="a" d="M165.966,46.828h.143c.168,0,.306-.056.306-.194,0-.122-.087-.2-.28-.2a.934.934,0,0,0-.168.015Zm-.01.744h-.306V46.258a2.565,2.565,0,0,1,.5-.041.824.824,0,0,1,.458.1.364.364,0,0,1,.127.29.342.342,0,0,1-.275.306v.015a.392.392,0,0,1,.239.321,1.137,1.137,0,0,0,.1.331h-.326a1.078,1.078,0,0,1-.107-.321c-.025-.148-.1-.209-.275-.209h-.143v.525Zm-.932-.688a1.131,1.131,0,0,0,2.262.01,1.129,1.129,0,0,0-1.121-1.116,1.171,1.171,0,0,0-1.141,1.105m2.491,0a1.353,1.353,0,1,1-1.35-1.314,1.323,1.323,0,0,1,1.35,1.314" transform="translate(-80.858 -22.357)"/></svg>