<svg xmlns="http://www.w3.org/2000/svg" width="12.871" height="10.508" viewBox="0 0 12.871 10.508"><defs><style>.a{fill:#ffc7a7;}</style></defs><g transform="translate(-12.451 72.266)"><path class="a" d="M25.323-67.012a.628.628,0,0,0-.208-.464l-4.6-4.582a.62.62,0,0,0-.464-.208.585.585,0,0,0-.6.6.613.613,0,0,0,.166.437l1.553,1.58L23.5-67.525l-1.67-.1H13.061a.588.588,0,0,0-.61.617.588.588,0,0,0,.61.617h8.768l1.677-.1-2.336,2.128-1.553,1.58a.6.6,0,0,0-.166.437.585.585,0,0,0,.6.6.632.632,0,0,0,.451-.194l4.609-4.6A.628.628,0,0,0,25.323-67.012Z"/></g></svg>