<svg xmlns="http://www.w3.org/2000/svg" width="26" height="26" viewBox="0 0 26 26"><defs><style>.a{fill:#798089;}.b{fill:none;}</style></defs><g transform="translate(-1.982 97.945)"><path class="a" d="M11.3-76.945h7.379a1.437,1.437,0,0,0,1.583-1.5l.5-11.336h1.164a.586.586,0,0,0,.574-.59.58.58,0,0,0-.574-.582H18.38v-1.164a1.764,1.764,0,0,0-1.948-1.831h-2.9a1.758,1.758,0,0,0-1.94,1.831v1.164H8.045a.59.59,0,0,0-.574.582.591.591,0,0,0,.574.59H9.224l.5,11.336A1.431,1.431,0,0,0,11.3-76.945ZM12.832-90.95v-1.086a.736.736,0,0,1,.791-.753h2.723a.742.742,0,0,1,.8.753v1.086Zm-1.086,11.3L11.4-88.111a.517.517,0,0,1,.512-.566.568.568,0,0,1,.52.566l.318,8.457a.528.528,0,0,1-.512.574A.521.521,0,0,1,11.746-79.653Zm2.716,0-.008-8.457a.558.558,0,0,1,.528-.566.559.559,0,0,1,.535.566v8.457a.566.566,0,0,1-.535.574A.554.554,0,0,1,14.462-79.653Zm2.77,0,.318-8.457a.557.557,0,0,1,.52-.566.526.526,0,0,1,.512.566l-.349,8.457a.527.527,0,0,1-.5.574A.521.521,0,0,1,17.232-79.653Z"/></g><rect class="b" width="26" height="26"/></svg>