<svg xmlns="http://www.w3.org/2000/svg" viewBox="0 0 30 30" width="30" height="30">
	<style>
		tspan { white-space:pre }
		.shp0 { fill: #bf0000 } 
	</style>
	<g id="Layer">
		<path id="Layer" fill-rule="evenodd" class="shp0" d="M10.44 5.03C10.9 5.02 11.36 5.07 11.8 5.18C12.25 5.28 12.68 5.44 13.08 5.65C13.49 5.87 13.87 6.13 14.21 6.43C14.55 6.74 14.85 7.09 15.1 7.47C15.36 7.09 15.66 6.74 16 6.43C16.34 6.13 16.72 5.87 17.13 5.65C17.53 5.44 17.96 5.28 18.41 5.18C18.85 5.07 19.31 5.02 19.77 5.03C23.31 5.03 25.97 7.76 25.97 11.64C25.97 16.3 22.06 20.88 15.9 24.82C15.84 24.86 15.78 24.9 15.71 24.93C15.65 24.96 15.58 24.99 15.52 25.02C15.45 25.04 15.38 25.07 15.31 25.08C15.24 25.1 15.17 25.11 15.1 25.12C15.03 25.11 14.96 25.1 14.89 25.08C14.82 25.07 14.75 25.05 14.69 25.02C14.62 24.99 14.56 24.97 14.49 24.93C14.43 24.9 14.37 24.86 14.31 24.82C8.14 20.88 4.23 16.3 4.23 11.64C4.23 7.76 6.89 5.03 10.44 5.03ZM5.99 11.64C5.99 15.71 10.3 20.09 14.88 23.14C14.9 23.16 14.91 23.17 14.93 23.18C14.95 23.2 14.96 23.21 14.98 23.22C15 23.23 15.02 23.24 15.04 23.25C15.06 23.26 15.08 23.26 15.1 23.27C15.12 23.26 15.14 23.26 15.16 23.25C15.18 23.24 15.2 23.23 15.22 23.22C15.24 23.21 15.26 23.19 15.28 23.18C15.29 23.17 15.31 23.15 15.33 23.14C19.9 20.1 24.2 15.71 24.2 11.64C24.2 8.73 22.32 6.79 19.78 6.79C19.38 6.81 18.99 6.87 18.6 6.98C18.22 7.1 17.85 7.26 17.5 7.47C17.16 7.67 16.85 7.92 16.57 8.21C16.29 8.49 16.04 8.82 15.84 9.16C15.53 9.59 15.36 9.72 15.1 9.72C14.84 9.72 14.66 9.6 14.36 9.16C14.16 8.81 13.92 8.49 13.64 8.2C13.37 7.91 13.05 7.65 12.71 7.45C12.36 7.24 11.99 7.08 11.61 6.97C11.22 6.86 10.82 6.8 10.42 6.79C7.88 6.79 6 8.73 6 11.64L5.99 11.64Z" />
		<path id="Shape 1" class="shp0" d="M15.54 24.54L23.19 17.21C25.06 15.35 26 13.52 26 11.72C26 9.93 25.48 8.52 24.44 7.51C23.4 6.51 21.96 6 20.13 6C19.62 6 19.11 6.09 18.58 6.26C18.05 6.44 17.56 6.67 17.11 6.97C16.65 7.27 16.26 7.55 15.93 7.81C15.61 8.07 15.29 8.35 15 8.64C14.71 8.35 14.39 8.07 14.07 7.81C13.74 7.55 13.35 7.27 12.89 6.97C12.44 6.67 11.95 6.44 11.42 6.26C10.89 6.09 10.38 6 9.87 6C8.03 6 6.6 6.51 5.56 7.51C4.52 8.52 4 9.93 4 11.72C4 12.26 4.1 12.83 4.29 13.4C4.48 13.98 4.7 14.47 4.95 14.88C5.19 15.29 5.47 15.69 5.78 16.07C6.09 16.46 6.32 16.73 6.46 16.87C6.6 17.02 6.72 17.13 6.8 17.19L14.46 24.54C14.61 24.69 14.79 24.76 15 24.76C15.21 24.76 15.39 24.69 15.54 24.54L15.54 24.54Z" />
	</g>
</svg>