<svg xmlns="http://www.w3.org/2000/svg" width="30" height="30" viewBox="0 0 30 30"><defs><style>.a{fill:#fff;}.b{fill:none;}</style></defs><g transform="translate(-6.57 86.471)"><path class="a" d="M20-64.923a8.746,8.746,0,0,0,5.1-1.643l5.408,5.408a1.3,1.3,0,0,0,.936.377,1.251,1.251,0,0,0,1.267-1.3,1.256,1.256,0,0,0-.365-.913L26.976-68.38a8.739,8.739,0,0,0,1.8-5.317A8.8,8.8,0,0,0,20-82.471,8.8,8.8,0,0,0,11.231-73.7,8.8,8.8,0,0,0,20-64.923Zm0-1.894a6.925,6.925,0,0,1-6.88-6.88A6.925,6.925,0,0,1,20-80.577a6.925,6.925,0,0,1,6.88,6.88A6.925,6.925,0,0,1,20-66.817Z" transform="translate(0)"/></g><rect class="b" width="30" height="30"/></svg>