<svg xmlns="http://www.w3.org/2000/svg" width="22" height="22" viewBox="0 0 22 22"><defs><style>.a,.b{fill:none;}.a{stroke:#fff;}</style></defs><g transform="translate(1.911 5.5)"><path class="a" d="M196.221,4026.489a1.409,1.409,0,0,0-1.405,1.41,1.39,1.39,0,0,0,.09.492l-1.253.8a1.923,1.923,0,0,1-2.528-.408l-1.218-1.5a1.393,1.393,0,0,0,.311-.878,1.4,1.4,0,1,0-2.81,0,1.393,1.393,0,0,0,.311.878l-1.219,1.5a1.922,1.922,0,0,1-2.527.408l-1.253-.8a1.4,1.4,0,1,0-1.38.917l.886,5.338,0,.006c0,.015-.006.029-.006.043,0,1.35,3.315,2.057,6.59,2.057s6.59-.707,6.59-2.057c0-.015-.006-.028-.006-.043l0-.007.886-5.338a1.41,1.41,0,0,0-.064-2.818Zm-1.827,8.5a.294.294,0,0,1-.294-.294c0-.613-2.012-1.469-5.288-1.469s-5.288.855-5.288,1.469a.294.294,0,1,1-.588,0c0-1.336,3.027-2.056,5.875-2.056s5.875.72,5.875,2.056A.294.294,0,0,1,194.394,4034.988Z" transform="translate(-180 -4025)"/></g><rect class="b" width="22" height="22"/></svg>