<svg xmlns="http://www.w3.org/2000/svg" width="34" height="34" viewBox="0 0 34 34"><defs><style>.a{fill:#fff;}.b{fill:none;}</style></defs><g transform="translate(5 6)"><path class="a" d="M0,1.342A1.267,1.267,0,0,1,1.342,0H22.807a1.267,1.267,0,0,1,1.342,1.342,1.267,1.267,0,0,1-1.342,1.342H1.342A1.267,1.267,0,0,1,0,1.342ZM0,8.049A1.344,1.344,0,0,1,1.342,6.708h16.1a1.342,1.342,0,0,1,0,2.683H1.342A1.267,1.267,0,0,1,0,8.049Zm0,6.708a1.267,1.267,0,0,1,1.342-1.342H22.807a1.267,1.267,0,0,1,1.342,1.342A1.267,1.267,0,0,1,22.807,16.1H1.342A1.267,1.267,0,0,1,0,14.757Zm0,6.708a1.267,1.267,0,0,1,1.342-1.342H12.074a1.344,1.344,0,0,1,1.342,1.342,1.267,1.267,0,0,1-1.342,1.342H1.342A1.267,1.267,0,0,1,0,21.465Z" transform="translate(0)"/></g><rect class="b" width="34" height="34"/></svg>