<svg xmlns="http://www.w3.org/2000/svg" width="30" height="30" viewBox="0 0 30 30"><defs><style>.a{fill:#101f4b;}.b{fill:none;}</style></defs><g transform="translate(5.508 2.731)"><path class="a" d="M15.914-67.5H28.893c1.974,0,3.132-1.147,3.132-3.418V-82.331c0-2.272-1.169-3.418-3.463-3.418H26.8a4.525,4.525,0,0,0-4.565-4.29,4.525,4.525,0,0,0-4.565,4.29H15.914q-3.457,0-3.463,3.418v11.413Q12.451-67.494,15.914-67.5Zm6.319-20.864a2.732,2.732,0,0,1,2.79,2.613h-5.58A2.732,2.732,0,0,1,22.232-88.363Zm-6.3,19.088a1.539,1.539,0,0,1-1.709-1.731V-82.243a1.539,1.539,0,0,1,1.709-1.731H28.529a1.551,1.551,0,0,1,1.72,1.731v11.237c0,1.147-.629,1.731-1.389,1.731Z" transform="translate(-12.451 90.039)"/></g><rect class="b" width="30" height="30"/></svg>