<svg xmlns="http://www.w3.org/2000/svg" width="93.552" height="149.86" viewBox="0 0 93.552 149.86"><defs><style>.a{fill:#11214a;}</style></defs><path class="a" d="M46.79,13.06c24.86,0,45.39,30.46,45.76,67.91.22,22.31-7.2,43.26-19.85,56.04-7.67,7.75-16.64,11.85-25.91,11.85-24.77,0-44.87-29.84-45.76-67.92-.51-22,6.66-42.79,19.2-55.62,7.83-8.03,17.01-12.26,26.56-12.26m0-1C20.96,12.06-.87,42.5.03,80.96c.89,38.04,20.94,68.9,46.76,68.9s47.14-30.85,46.76-68.9c-.38-37.49-20.94-68.9-46.76-68.9ZM33.3,22.07a2.951,2.951,0,0,0-.2-1.13,1.158,1.158,0,0,1,.58.77,1.976,1.976,0,0,1-.18,1.24,1.393,1.393,0,0,1-.38.53,1.1,1.1,0,0,1-1.27.05,1.148,1.148,0,0,0,.83-.21A1.575,1.575,0,0,0,33.3,22.07Zm-1.41,2.77a1.767,1.767,0,0,0,1.33.54,2.355,2.355,0,0,0,2.24-1.75,3,3,0,0,0-.82-2.69,5.342,5.342,0,0,0-2.68-1.38,9.1,9.1,0,0,0-4.05-.05V19.5c-.04.01-.08.03-.12.04a15.826,15.826,0,0,0-2.25.87,5.674,5.674,0,0,0-2.01,1.89,6.461,6.461,0,0,0-1.37,3.28,3.054,3.054,0,0,0,.61,2.49,1.949,1.949,0,0,0,2.29.26.62.62,0,0,0,.31-.44.433.433,0,0,0-.09-.39.577.577,0,0,0-.49-.13.5.5,0,0,1-.12.02,1.328,1.328,0,0,1-.45.04A.85.85,0,0,1,23.6,27a3.244,3.244,0,0,1,.13-2.48,6.139,6.139,0,0,1,4.82-3.46c.6-.11,2.04-.24,2.45.84a2.9,2.9,0,0,1,.12.42,1.729,1.729,0,0,0,.35.79.869.869,0,0,0,1.09.03,1.391,1.391,0,0,0,.52-1.08,3.339,3.339,0,0,0-.26-1.27l-.07-.2.21.04a1.347,1.347,0,0,1,.97,1.02,2.129,2.129,0,0,1-.2,1.39,1.716,1.716,0,0,1-.44.61,1.31,1.31,0,0,1-1.65-.01A1.191,1.191,0,0,0,31.89,24.84Zm-4.27-7.62c-.17.04-.35.08-.53.12a5.212,5.212,0,0,0-1.55.5,2.5,2.5,0,0,0-1.21,1.75,1.679,1.679,0,0,0,.29,1.14,4.627,4.627,0,0,1,.8-.53,16.242,16.242,0,0,1,2.28-.88c.23-.08.46-.15.69-.23a25.807,25.807,0,0,0,3.03-1.26,9.042,9.042,0,0,0,2.23-1.45,3.932,3.932,0,0,0,1.26-2.25.849.849,0,0,0-.25-.84,8.861,8.861,0,0,1-.52.73,12.89,12.89,0,0,1-6.21,4.41c-.12.04-.16-.15-.05-.19a11.785,11.785,0,0,0,1.97-.84A13.469,13.469,0,0,0,35,12.33,3.289,3.289,0,0,0,31.8,7.6a1.789,1.789,0,0,0-1.43.86,3.16,3.16,0,0,1,2.09.33,2.522,2.522,0,0,1,1.29,1.9,4.053,4.053,0,0,1-.19,1.81,2.649,2.649,0,0,1-1.14,1.48A8.4,8.4,0,0,1,27.62,17.22ZM16.01,27.34l.15-.03-.11-.15-.01-.01-.07-.07-.02-.02a2.542,2.542,0,0,0-.23-.22,1.243,1.243,0,0,0-.58-.23c-.04,0-.08-.01-.12-.01a1.364,1.364,0,0,0-.96.4,1.675,1.675,0,0,0-.46.81,2.419,2.419,0,0,1,.88-2.53,1.469,1.469,0,0,1,.73-.21,1.361,1.361,0,0,1,.36.05,1.05,1.05,0,0,1,.57.42,1.872,1.872,0,0,0,.19,1.7,1.507,1.507,0,0,0,.21.23c-.5.67-1,1.35-1.49,2.06-.17-.9-.29-1.75.95-2.19Zm-.14-1.77a.8.8,0,0,0-.38-.24.925.925,0,0,0-.29-.04,1.194,1.194,0,0,0-.61.17,1.8,1.8,0,0,0-.81,1.5c.04-.04.08-.09.12-.13a1.573,1.573,0,0,1,1.26-.45,1.4,1.4,0,0,1,.67.26A2.036,2.036,0,0,1,15.87,25.57Zm.19,1.98a1.131,1.131,0,0,0-.88,1.39c.34-.47.68-.95,1.04-1.43l-.16.04ZM48.31,8.17a3.168,3.168,0,0,0,.41.21,2.3,2.3,0,0,1,.99.72l.26.37-.4-.21a1.326,1.326,0,0,0-.88-.21.744.744,0,0,0-.53.39h.06a2.494,2.494,0,0,1,.81.15,1.794,1.794,0,0,1,.68.45,2.744,2.744,0,0,1,.74,1.72,1.469,1.469,0,0,1-.7,1.57.881.881,0,0,1-.33.06.6.6,0,0,1-.62-.35l-.01-.02V13a1.3,1.3,0,0,0-.05-.51.369.369,0,0,0-.34-.25.36.36,0,0,0-.35.26,1.185,1.185,0,0,0,0,.53,1.837,1.837,0,0,0,1.54,1.48,1.477,1.477,0,0,0,.21.01,1.873,1.873,0,0,0,1.61-.99,3.449,3.449,0,0,0,.16-2.74,6.974,6.974,0,0,0-2.74-3.65,2.749,2.749,0,0,0-.93-.29,4.065,4.065,0,0,1-.88-.24A2.481,2.481,0,0,0,48.31,8.17ZM46.96,7.08A2.857,2.857,0,0,0,48.2,8.36c.14.08.28.15.42.22h.01a3.534,3.534,0,0,1,.51.28,1.154,1.154,0,0,0-.49-.01.992.992,0,0,0-.77.69l-.01.03-.15-.18c-.11-.13-.22-.27-.32-.41A3.413,3.413,0,0,1,46.96,7.08Zm.28.81a2.123,2.123,0,0,0,.35.95c.08.1.16.21.24.31a1.227,1.227,0,0,1,.53-.46c-.09-.05-.18-.09-.27-.15A3.6,3.6,0,0,1,47.24,7.89ZM23.52,20.84a1.67,1.67,0,0,1-.25-.43c-.08.07-.15.14-.23.21A.6.6,0,0,0,23.52,20.84Zm14-13.34a.967.967,0,0,0,.21-.71l-.02-.15-.14.06a.684.684,0,0,1-.29.06.82.82,0,0,1-.66-.34,1.077,1.077,0,0,1-.05-1.06,1.484,1.484,0,0,1,.41-.5,1.076,1.076,0,0,0-.01,1.07.851.851,0,0,0,.77.44,1.3,1.3,0,0,0,.46-.09,1.608,1.608,0,0,0-.01.31v.02h.02v.03a.793.793,0,0,1-.28.65A1.143,1.143,0,0,1,37.52,7.5Zm.4-.93.02.19c0,.03.01.06.01.09a.235.235,0,0,0,.02-.08l-.02-.16V6.57Zm-.54-.04a1.038,1.038,0,0,1-.61-.5.882.882,0,0,1-.09-.2.725.725,0,0,0,.12.46.606.606,0,0,0,.48.25A.34.34,0,0,0,37.38,6.53ZM13.67,32.2c.29-.21.57-.46.83-.69l.05-.06c.53-.5.42-1.07.28-1.8-.17-.9-.36-1.92.92-2.46l-.17-.17a1.086,1.086,0,0,0-.47-.19h-.1a1.172,1.172,0,0,0-.8.33,1.666,1.666,0,0,0-.46,1.3l.03.81-.26-.76c-.4-1.18-.31-2.76.83-3.44a1.733,1.733,0,0,1,.85-.24,1.421,1.421,0,0,1,.42.06,1.253,1.253,0,0,1,.71.55l.1.18a.738.738,0,0,0,.41.29.9.9,0,0,0,.28.04,1.036,1.036,0,0,0,.59-.19,1.3,1.3,0,0,0,.42-1.54,1.687,1.687,0,0,0-1.53-.85,1.652,1.652,0,0,0-.51.08,1.25,1.25,0,0,0-.41.22l-.02.01-.61.34.47-.53.01-.01a1.565,1.565,0,0,1,.48-.25,2.009,2.009,0,0,1,2.32.89,1.55,1.55,0,0,1-.23,1.57,1.661,1.661,0,0,1-.27.26,1.228,1.228,0,0,1-.73.24,1.27,1.27,0,0,1-.34-.05c-.05-.02-.11-.04-.16-.06a1.8,1.8,0,0,0,1.46.86.615.615,0,0,0,.14-.01,2.19,2.19,0,0,0,1.72-2.17,2.7,2.7,0,0,0-1.9-2.27L18,22.48l-.69-.2.78-.01.02.01a2.921,2.921,0,0,1,2.04,2.46,2.486,2.486,0,0,1-.58,1.62,2.073,2.073,0,0,1-1.35.8.97.97,0,0,1-.17.01,1.992,1.992,0,0,1-1.81-1.34,1.741,1.741,0,0,0,.25,1.26,2.294,2.294,0,0,0,1.71.79,2.111,2.111,0,0,0,.26-.02,2.934,2.934,0,0,0,2.46-2.25,3.13,3.13,0,0,0-1.32-3.39,3.834,3.834,0,0,0-2.05-.56,4.13,4.13,0,0,0-1.99.49c-2.51,1.38-3.21,5.09-2.14,7.36.01.01.07.17.08.18a3.742,3.742,0,0,1,.2.99,2.8,2.8,0,0,1-.36,1.7,1.857,1.857,0,0,0,.19-.11A.458.458,0,0,0,13.67,32.2Zm33.01-26h.09c.01,0,.01,0,.02-.01s.02-.01.03,0a4.284,4.284,0,0,0,2.56-3.85.41.41,0,0,0-.11-.01c-.54,0-.99.59-1.11.77l-.34.5.15-.59A2.3,2.3,0,0,0,47.39.72L47.24.57,47.23.56A2.019,2.019,0,0,1,46.74,0a2.647,2.647,0,0,1-.48.58l-.01.01L46.1.74a2.3,2.3,0,0,0-.58,2.29l.15.59-.34-.5c-.12-.18-.56-.77-1.11-.77a.41.41,0,0,0-.11.01A4.257,4.257,0,0,0,46.68,6.2Zm4.21,2.69a5.513,5.513,0,0,1-.07-2.03,1.975,1.975,0,0,1-.39-1.84,1.638,1.638,0,0,1,1.3-.95.578.578,0,0,0-.24-.3A.941.941,0,0,0,51,3.62a.711.711,0,0,0-.21.03,1.7,1.7,0,0,0-.96.91c-.07.13-.14.26-.2.39l-.01.01a4.551,4.551,0,0,1-.52.87,2.537,2.537,0,0,1-1.14.81,3.163,3.163,0,0,1,1,.31A6.609,6.609,0,0,1,50.89,8.89Zm.98-4.61h.06a5.111,5.111,0,0,0-1.06,2.29,1.766,1.766,0,0,1-.24-1.47A1.4,1.4,0,0,1,51.87,4.28Zm-1.03.91a1.144,1.144,0,0,0-.02.69,5.688,5.688,0,0,1,.59-1.27A1.19,1.19,0,0,0,50.84,5.19ZM22.03,22.13a1.214,1.214,0,0,0,1.2.18,1.213,1.213,0,0,0,.1-.14c0-.01.01-.01.01-.02h0a10.01,10.01,0,0,1,1.1-1.28,1.953,1.953,0,0,1-.34-1.33,2.731,2.731,0,0,1,1.32-1.91,5.232,5.232,0,0,1,1.61-.52c.17-.04.35-.07.52-.12a8.262,8.262,0,0,0,4.4-2.78l.26-.36a2.811,2.811,0,0,0,.14-3.07,2.544,2.544,0,0,0-2.71-1.11,3.011,3.011,0,0,0,.61.92,4.992,4.992,0,0,1,.4.51,3,3,0,0,1-1.39,4.49l-.31.12.18-.29a6.765,6.765,0,0,0,.8-1.62,2.566,2.566,0,0,0,0-1.6,2.1,2.1,0,0,0-.64,1.31c-.03.13-.06.27-.1.4l-.15.57-.07-.58c-.06-.51-.35-1.05-.84-1.09a4.35,4.35,0,0,1-.95,2.82,4.654,4.654,0,0,1-1.48.92c-.24.11-.48.22-.71.35a3.434,3.434,0,0,0-1.57,1.69,2.175,2.175,0,0,0,.36,2.2l.1.1-.12.07a.8.8,0,0,1-1.02-.36,2.367,2.367,0,0,1,.3-2.91,8.294,8.294,0,0,1,1.02-.86,4.8,4.8,0,0,0,1.49-1.52,1.756,1.756,0,0,0-.08-1.83,1.261,1.261,0,0,0-.64-.43,2.048,2.048,0,0,0-.24-.05,1.032,1.032,0,0,0-.79.22.654.654,0,0,0-.19.82,1.088,1.088,0,0,0,.33.26,1.118,1.118,0,0,1,.41.34c.44.68-.41,1.46-.97,1.98a3.75,3.75,0,0,0-.28.27c-.94.99-2.14,2.48-1.78,4.07A1.957,1.957,0,0,0,22.03,22.13Zm8.38,4.19a1.527,1.527,0,0,0-.9-.91,1.075,1.075,0,0,0-.4-.05.964.964,0,0,0-.72.47.769.769,0,0,0-.09.65,2.948,2.948,0,0,1,1.05.41,2.208,2.208,0,0,1,.58.5,1.823,1.823,0,0,1,.35,1.12c.04-.13.08-.27.12-.41A2.9,2.9,0,0,0,30.41,26.32ZM42.61,6.57a5.111,5.111,0,0,0-1.06-2.29h.06a1.4,1.4,0,0,1,1.24.82A1.766,1.766,0,0,1,42.61,6.57Zm-.54-1.96a5.277,5.277,0,0,1,.59,1.27,1.144,1.144,0,0,0-.02-.69A1.19,1.19,0,0,0,42.07,4.61ZM24.82,32.42a2.052,2.052,0,0,1,1.95.01,8.587,8.587,0,0,1,.48-.96,1.18,1.18,0,0,0-.45-1.27,2.6,2.6,0,0,1-1.04,1.2c-.27.18-.56.33-.84.48h-.01c-.21.11-.42.22-.63.35a9.41,9.41,0,0,0-1.58,1.2c.03-.02.07-.04.1-.06.17-.09.36-.2.55-.3A13.923,13.923,0,0,1,24.82,32.42Zm-4.98-.84-.01-.03c-.01-.01-.01-.03-.02-.04a6.108,6.108,0,0,1-2.1,1.71,5.009,5.009,0,0,1-.92.38,7.241,7.241,0,0,1-1.53.22c-.21.02-.46.03-.69.06a6.946,6.946,0,0,0-3.59,1.48,5.069,5.069,0,0,0-1.91,2.78,24.686,24.686,0,0,1,7.76-2.08l1.38-.18a31.107,31.107,0,0,0,8.15-1.79,8.207,8.207,0,0,0,4.48-3.89l.02-.04h0c.02-.05.05-.11.08-.17a3.812,3.812,0,0,0,.43-2.7,2.65,2.65,0,0,0-.93-1.42,1.615,1.615,0,0,1,.17.35,3.275,3.275,0,0,1,0,1.92,3.675,3.675,0,0,1-.7,1.5,1,1,0,0,1-.14.15l-.03.03h0a1.959,1.959,0,0,1-.41.3,2.529,2.529,0,0,1-.45.19c-.12.05-.24.09-.36.15a2.646,2.646,0,0,0-1.09,1.09v.03l-.01.04h-.01a10.105,10.105,0,0,0-.51,1.05l-.07.16-.12-.12c-.35-.36-.99-.38-1.83-.06a13.311,13.311,0,0,0-1.45.64c-.18.1-.37.2-.55.3a12.111,12.111,0,0,1-1.35.67,3.65,3.65,0,0,1-2.14.2l-.51-.12.51-.11a4.138,4.138,0,0,0,.61-.19c1.58-.68,3.1-1.54,3.49-3.2a2.066,2.066,0,0,0,.04-.74,1.42,1.42,0,0,0-.3-.72c-.03.09-.07.2-.13.34l-.01.01a2.549,2.549,0,0,1-.27.48,9.242,9.242,0,0,1-.73.89,10.893,10.893,0,0,1-4.69,3.16,8.816,8.816,0,0,1-2.66.37h-.26a6.342,6.342,0,0,0-2.44.54l-.26.13.21-.19a4,4,0,0,1,2.57-.71,9.406,9.406,0,0,0,2.77-.36,8.63,8.63,0,0,0,2.05-.96l-.01-.01.03-.02A1.146,1.146,0,0,0,19.84,31.58ZM9.73,35.24h0l-.05.04h0a10.662,10.662,0,0,0-1.35,1.76,3.126,3.126,0,0,0-.59,1.88,10.972,10.972,0,0,1,1.06-.63,5.322,5.322,0,0,1,2.04-3.11,7.285,7.285,0,0,1,3.71-1.53c.24-.03.48-.04.7-.06a7.437,7.437,0,0,0,1.48-.21,5.653,5.653,0,0,0,.88-.36,5.909,5.909,0,0,0,2.14-1.8c0-.02.01-.03.01-.05a.436.436,0,0,1,.1-.15l.01-.02a1.041,1.041,0,0,0,.11-1.2,1.011,1.011,0,0,0-.73-.46,1.071,1.071,0,0,1,.34.74,1.034,1.034,0,0,1-.65,1,1.873,1.873,0,0,1-.46.09c-.07.01-.13.01-.19.02a2.929,2.929,0,0,0-1.48.96,3,3,0,0,1-1.82,1.06l-.4.03.32-.24a1.721,1.721,0,0,0,.63-.71.831.831,0,0,0-.6-.21,1.225,1.225,0,0,0-.19.02,2.743,2.743,0,0,0-.9.38l-1.33.75c-.08.05-.16.09-.24.14a15.132,15.132,0,0,0-2.53,1.84Zm9.62-5.14a.824.824,0,0,0-.52-.73c-.01,0-.01,0-.02-.01s-.01-.01-.02-.01h-.01a.831.831,0,0,0-.62.27,1.154,1.154,0,0,0,.39.18l.08.02a1.543,1.543,0,0,1,.5.2.7.7,0,0,1,.2.22A.23.23,0,0,0,19.35,30.1ZM39,4.98a1.32,1.32,0,0,0-.32.04.59.59,0,0,0-.4.5,1.128,1.128,0,0,0,.03.38,1.1,1.1,0,0,1,.4-.43,2.108,2.108,0,0,1,.9-.23,1.177,1.177,0,0,1,.31.05A1.983,1.983,0,0,0,39.17,5,.881.881,0,0,0,39,4.98ZM11.26,31.88a5.914,5.914,0,0,1-1.45,2.38c-.35.37-.75.71-1.13,1.04-.24.2-.48.41-.71.63a5.615,5.615,0,0,0-1.44,1.92,2.269,2.269,0,0,0-.02,2.02,11.37,11.37,0,0,1,1.01-.8,3.159,3.159,0,0,1,.6-2.14,11.5,11.5,0,0,1,1.57-2.02l.03-.03.01.01a10.637,10.637,0,0,1,1.14-.99l.45-.36a4.044,4.044,0,0,0,1.37-1.73.84.84,0,0,0-.02-.71.2.2,0,0,0-.18-.09.41.41,0,0,0-.33.13l-.34.35.15-.46a2.213,2.213,0,0,0,.07-1.42.855.855,0,0,0-.43-.51.5.5,0,0,0-.34,0,.382.382,0,0,0-.14.11A3.919,3.919,0,0,1,11.26,31.88ZM41.89,10.79a3.491,3.491,0,0,0,.16,2.74,1.873,1.873,0,0,0,1.61.99,1.477,1.477,0,0,0,.21-.01,1.826,1.826,0,0,0,1.54-1.48,1.056,1.056,0,0,0,0-.53.36.36,0,0,0-.35-.26.347.347,0,0,0-.34.25,1.3,1.3,0,0,0-.05.51v.02l-.01.02a.6.6,0,0,1-.62.35.881.881,0,0,1-.33-.06,1.469,1.469,0,0,1-.7-1.57,2.743,2.743,0,0,1,.74-1.72,1.753,1.753,0,0,1,.68-.45,2.807,2.807,0,0,1,.81-.15h.06a.7.7,0,0,0-.53-.39,1.3,1.3,0,0,0-.86.21l-.4.21.26-.37a2.3,2.3,0,0,1,.99-.72c.14-.07.28-.13.41-.21a2.323,2.323,0,0,0,1.26-1.55,3.085,3.085,0,0,1-.88.24,2.543,2.543,0,0,0-.93.29A6.985,6.985,0,0,0,41.89,10.79Zm-1.33.16v.02c-.01.14-.03.28-.04.41a6.745,6.745,0,0,0,.18,2.44A3.023,3.023,0,0,0,43.49,16a2.418,2.418,0,0,0,.47-.04,2.93,2.93,0,0,0,1.84-1.34,1.874,1.874,0,0,0,.24-1.55.45.45,0,0,0-.28-.29.1.1,0,0,0-.09.01,1.7,1.7,0,0,1-.04.28,2.049,2.049,0,0,1-1.73,1.65,1.942,1.942,0,0,1-.24.02,2.087,2.087,0,0,1-1.8-1.1,3.714,3.714,0,0,1-.18-2.92c.06-.16.12-.32.19-.5l-.01-.01.01-.02c.08-.18.14-.32.19-.43s.1-.21.13-.31a5.264,5.264,0,0,0-1.1-5.35,4.875,4.875,0,0,0-3.18-1.28,3.363,3.363,0,0,0-1.73.46,3.759,3.759,0,0,0-1.59,3.35,2.681,2.681,0,0,0,1.24,1.78,2.1,2.1,0,0,0,1.05.29,2.325,2.325,0,0,0,.73-.12,1.526,1.526,0,0,0,.98-1.09.742.742,0,0,0-.19-.64,1.093,1.093,0,0,1-1.04.88.757.757,0,0,1-.15-.01l-.28-.05.24-.15a.764.764,0,0,0,.34-.57.852.852,0,0,1-.23.03,1.061,1.061,0,0,1-.85-.44,1.293,1.293,0,0,1-.07-1.28,1.832,1.832,0,0,1,.95-.86l.48-.21-.35.38a1.094,1.094,0,0,0-.3,1.25.629.629,0,0,0,.58.33,1.146,1.146,0,0,0,.41-.08,1.1,1.1,0,0,1-.07-.56.82.82,0,0,1,.55-.69A1.065,1.065,0,0,1,39,4.76a1.248,1.248,0,0,1,.21.02A2.86,2.86,0,0,1,41.03,6.1a2.264,2.264,0,0,1,.13.2h0l.01.01c0,.01.01.01.01.02l.01.02h0a4.588,4.588,0,0,1,.55,2.44l-.02.67-.19-.64a2.185,2.185,0,0,0-.78-1.35,1.122,1.122,0,0,0-.84-.1.861.861,0,0,0-.39.24,1.521,1.521,0,0,1,1.02,1.24A7.4,7.4,0,0,1,40.56,10.95Zm2.49-5.93a1.948,1.948,0,0,1-.39,1.84,5.513,5.513,0,0,1-.07,2.03,6.662,6.662,0,0,1,1.92-1.93,2.665,2.665,0,0,1,1-.31,2.616,2.616,0,0,1-1.14-.81,4.575,4.575,0,0,1-.51-.88l-.01-.01c-.06-.13-.13-.26-.2-.39a1.766,1.766,0,0,0-.96-.91.761.761,0,0,0-.21-.03.858.858,0,0,0-.49.15.578.578,0,0,0-.24.3A1.618,1.618,0,0,1,43.05,5.02Zm3.47,2.06a3.265,3.265,0,0,1-.45,1.89c-.1.14-.21.27-.32.41l-.15.18V9.53a.992.992,0,0,0-.77-.69,1.635,1.635,0,0,0-.22-.02,1.241,1.241,0,0,0-.27.03,4.16,4.16,0,0,1,.51-.28h.01c.14-.07.28-.14.42-.22A2.836,2.836,0,0,0,46.52,7.08Zm-.28.81a4.092,4.092,0,0,1-.84.66l-.27.15a1.165,1.165,0,0,1,.53.46c.09-.11.17-.21.24-.31A2.507,2.507,0,0,0,46.24,7.89ZM6.34,40.03a2.44,2.44,0,0,1-.02-2.27,5.787,5.787,0,0,1,1.5-2c.23-.22.48-.43.71-.63A13.532,13.532,0,0,0,9.64,34.1a5.572,5.572,0,0,0,1.39-2.29,3.744,3.744,0,0,0-.1-2.48l-.04-.05a.545.545,0,0,0-.44-.22.467.467,0,0,0-.17.03.545.545,0,0,0-.35.49.776.776,0,0,1,.24.68,2.209,2.209,0,0,1-.08.37c-.03.1-.05.2-.07.3a2.444,2.444,0,0,0,.02.6c.01.13.03.25.03.38A2.356,2.356,0,0,1,9.04,33.9l-.6.4.45-.57a3.147,3.147,0,0,0,.65-1.29,1.067,1.067,0,0,0-.29-1.09,8.682,8.682,0,0,1-1.13,2.58,11.8,11.8,0,0,1-1.21,1.35,5.354,5.354,0,0,0-1.97,3.29c-.05.81.31,1.66,1.1,1.75A2.755,2.755,0,0,1,6.34,40.03ZM2.06,50.02c.01-.02.01-.03.02-.05s.01-.02.01-.03A3.49,3.49,0,0,1,2.22,49a6.452,6.452,0,0,1,.21-.62c.09-.23.18-.49.27-.73a13.783,13.783,0,0,1,4.64-5.46,22.026,22.026,0,0,1,6.58-3.14,10.876,10.876,0,0,1,3.27-.52,8.507,8.507,0,0,1,.88.04v-.02l.04.01a3.358,3.358,0,0,0,.38.01h.02a12.125,12.125,0,0,1,1.48.09l.34.06a3.632,3.632,0,0,0,.71.09.757.757,0,0,0,.15-.01,3.244,3.244,0,0,0,1.24-.5c.11-.06.21-.12.32-.18a2.37,2.37,0,0,1,1.37-.34,1.746,1.746,0,0,0-1.1-.38l-.95.01.91-.23c.2-.05.38-.09.54-.13a4.06,4.06,0,0,0,1.57-.62,3.175,3.175,0,0,0-2.66.23c-.04.02-.08.05-.12.07l-.01.01a1.724,1.724,0,0,1-.85.33.764.764,0,0,1-.27-.05l-.09-.04.02-.1a1.32,1.32,0,0,1,.85-.89,2.558,2.558,0,0,1,.98-.15h.23c.29.01.58.03.84.06.36.03.73.06,1.1.06a5.793,5.793,0,0,0,.61-.03,2.434,2.434,0,0,0,1.98-1.25l.03-.06.07-.01a3.506,3.506,0,0,0,3.08-3.91,8.749,8.749,0,0,1-4.41,3.61,31.666,31.666,0,0,1-8.21,1.81h-.03c-.45.06-.9.11-1.34.17-3.2.43-6.53,1.09-9.18,2.94-2.51,1.76-4.48,4.65-5.85,8.59a3.858,3.858,0,0,0-.12,3.1A6.759,6.759,0,0,1,2.06,50.02ZM69.34,27.44a1.351,1.351,0,0,1-.45-.04.5.5,0,0,0-.12-.02.577.577,0,0,0-.49.13.433.433,0,0,0-.09.39.708.708,0,0,0,.31.44,1.934,1.934,0,0,0,2.29-.26,3.054,3.054,0,0,0,.61-2.49,6.46,6.46,0,0,0-1.37-3.28,5.5,5.5,0,0,0-2.01-1.89,14.951,14.951,0,0,0-2.25-.87c-.04-.01-.08-.03-.12-.04v.01a9.1,9.1,0,0,0-4.05.05,5.3,5.3,0,0,0-2.68,1.38,2.97,2.97,0,0,0-.82,2.69,2.352,2.352,0,0,0,2.24,1.75,1.783,1.783,0,0,0,1.33-.54,1.2,1.2,0,0,0,.25-1.19,1.31,1.31,0,0,1-1.65.01,1.747,1.747,0,0,1-.44-.61,2.194,2.194,0,0,1-.2-1.39,1.347,1.347,0,0,1,.97-1.02l.21-.04-.07.2a3.339,3.339,0,0,0-.26,1.27A1.375,1.375,0,0,0,61,23.16a.882.882,0,0,0,1.09-.03,1.507,1.507,0,0,0,.35-.79,3.31,3.31,0,0,1,.12-.42c.41-1.09,1.85-.95,2.45-.84a6.118,6.118,0,0,1,4.82,3.46,3.244,3.244,0,0,1,.13,2.48A.865.865,0,0,1,69.34,27.44Zm13.18,4.37a5.7,5.7,0,0,0,1.39,2.29c.35.36.74.7,1.11,1.03.24.2.48.41.71.63a5.787,5.787,0,0,1,1.5,2,2.47,2.47,0,0,1-.02,2.27c.11.1.21.19.31.29.79-.08,1.15-.94,1.1-1.75a5.4,5.4,0,0,0-1.97-3.29,12.829,12.829,0,0,1-1.21-1.35,8.5,8.5,0,0,1-1.12-2.58,1.042,1.042,0,0,0-.29,1.09,2.974,2.974,0,0,0,.65,1.29l.45.57-.6-.4a2.332,2.332,0,0,1-1.03-1.99c0-.13.02-.25.03-.38a2.444,2.444,0,0,0,.02-.6,1.628,1.628,0,0,0-.07-.3,2.209,2.209,0,0,1-.08-.37.785.785,0,0,1,.24-.68.556.556,0,0,0-.35-.49.467.467,0,0,0-.17-.03.518.518,0,0,0-.44.22l-.04.05A3.623,3.623,0,0,0,82.52,31.81Zm-.29,1.73.45.36a9.623,9.623,0,0,1,1.14.99l.01-.01.03.03a11.044,11.044,0,0,1,1.57,2.02,3.144,3.144,0,0,1,.6,2.14,11.371,11.371,0,0,1,1.01.8,2.237,2.237,0,0,0-.02-2.02,5.615,5.615,0,0,0-1.44-1.92c-.23-.21-.47-.42-.71-.63-.38-.33-.77-.67-1.13-1.04a5.914,5.914,0,0,1-1.45-2.38,3.951,3.951,0,0,1,.13-2.68.338.338,0,0,0-.14-.11.445.445,0,0,0-.34,0,.855.855,0,0,0-.43.51,2.213,2.213,0,0,0,.07,1.42l.15.46-.34-.35a.46.46,0,0,0-.33-.13.261.261,0,0,0-.18.09.8.8,0,0,0-.02.71A3.958,3.958,0,0,0,82.23,33.54ZM63.27,28.51a1.8,1.8,0,0,1,.35-1.12,2.038,2.038,0,0,1,.58-.5,2.948,2.948,0,0,1,1.05-.41.765.765,0,0,0-.09-.65.947.947,0,0,0-.72-.47,1.075,1.075,0,0,0-.4.05,1.554,1.554,0,0,0-.9.91,3.051,3.051,0,0,0,0,1.78C63.18,28.24,63.22,28.38,63.27,28.51Zm5.47,3.91a12.926,12.926,0,0,1,1.47.66c.19.1.38.2.55.3.03.02.07.04.1.06a9.832,9.832,0,0,0-1.58-1.2c-.2-.12-.42-.24-.63-.35h-.01c-.28-.15-.57-.3-.84-.48a2.645,2.645,0,0,1-1.04-1.2,1.186,1.186,0,0,0-.45,1.27,8.587,8.587,0,0,1,.48.96A2.047,2.047,0,0,1,68.74,32.42Zm10.05-.32a1.108,1.108,0,0,0-.19-.02.894.894,0,0,0-.6.21,1.721,1.721,0,0,0,.63.71l.32.24-.4-.03a3,3,0,0,1-1.82-1.06,3.021,3.021,0,0,0-1.48-.96,1.108,1.108,0,0,0-.19-.02,1.873,1.873,0,0,1-.46-.09,1.034,1.034,0,0,1-.65-1,1.091,1.091,0,0,1,.34-.74,1.011,1.011,0,0,0-.73.46,1.026,1.026,0,0,0,.11,1.2l.01.02a.4.4,0,0,1,.1.15.075.075,0,0,1,.01.05,5.994,5.994,0,0,0,2.14,1.8,4.3,4.3,0,0,0,.88.36,6.773,6.773,0,0,0,1.48.21c.22.02.46.03.7.06a7.2,7.2,0,0,1,3.71,1.53,5.292,5.292,0,0,1,2.04,3.11c.37.2.72.41,1.06.63a3.08,3.08,0,0,0-.59-1.88,9.341,9.341,0,0,0-1.35-1.76h0l-.05-.04h0l-.03-.02a14.734,14.734,0,0,0-2.53-1.84c-.08-.05-.16-.09-.24-.14l-1.33-.75A2.627,2.627,0,0,0,78.79,32.1Zm-4.38-2.07a1.543,1.543,0,0,1,.5-.2L75,29.8a1.154,1.154,0,0,0,.39-.18.811.811,0,0,0-.62-.27h-.01c-.01,0-.01,0-.02.01s-.01,0-.02.01a.84.84,0,0,0-.52.73.757.757,0,0,0,.01.15A.609.609,0,0,1,74.41,30.03Zm-1.8-4.42a2.946,2.946,0,0,0,2.46,2.25,2.111,2.111,0,0,0,.26.02,2.294,2.294,0,0,0,1.71-.79,1.731,1.731,0,0,0,.25-1.26,2.006,2.006,0,0,1-1.81,1.34.915.915,0,0,1-.17-.01,2.121,2.121,0,0,1-1.35-.8,2.486,2.486,0,0,1-.58-1.62,2.906,2.906,0,0,1,2.04-2.46l.02-.01.78.01-.69.2-.02.01a2.7,2.7,0,0,0-1.9,2.27,2.187,2.187,0,0,0,1.72,2.17.708.708,0,0,0,.14.01,1.8,1.8,0,0,0,1.46-.86c-.05.02-.1.04-.16.06a1.332,1.332,0,0,1-.34.05,1.185,1.185,0,0,1-.73-.24,1.661,1.661,0,0,1-.27-.26,1.547,1.547,0,0,1-.23-1.57,2.009,2.009,0,0,1,2.32-.89,1.819,1.819,0,0,1,.48.25l.01.01.47.53-.61-.34-.02-.01a1.469,1.469,0,0,0-.41-.22,1.6,1.6,0,0,0-.51-.08,1.687,1.687,0,0,0-1.53.85,1.287,1.287,0,0,0,.42,1.54.99.99,0,0,0,.59.19.863.863,0,0,0,.28-.04.725.725,0,0,0,.41-.29l.1-.18a1.253,1.253,0,0,1,.71-.55,1.471,1.471,0,0,1,.42-.06,1.634,1.634,0,0,1,.85.24c1.14.68,1.23,2.26.83,3.44l-.26.76.03-.81a1.652,1.652,0,0,0-.46-1.3,1.153,1.153,0,0,0-.8-.33h-.1a.975.975,0,0,0-.47.19l-.17.17c1.27.54,1.08,1.56.92,2.46-.13.72-.24,1.29.28,1.8l.05.06c.27.23.54.48.83.69a1.047,1.047,0,0,1,.11.08,1.178,1.178,0,0,0,.19.11,2.7,2.7,0,0,1-.36-1.7,3.674,3.674,0,0,1,.2-.99,1.416,1.416,0,0,1,.08-.18c1.07-2.27.37-5.98-2.14-7.36a4.246,4.246,0,0,0-1.99-.49,3.834,3.834,0,0,0-2.05.56A3.145,3.145,0,0,0,72.61,25.61Zm-10.44,1.7a3.865,3.865,0,0,0,.43,2.7,1.3,1.3,0,0,1,.08.17h0l.02.04a8.274,8.274,0,0,0,4.48,3.89,31.107,31.107,0,0,0,8.15,1.79l1.38.18a24.351,24.351,0,0,1,7.76,2.08,5.122,5.122,0,0,0-1.91-2.78,7.03,7.03,0,0,0-3.59-1.48c-.23-.03-.47-.04-.69-.06a7.241,7.241,0,0,1-1.53-.22,5.009,5.009,0,0,1-.92-.38,6.108,6.108,0,0,1-2.1-1.71c-.01.01-.01.03-.02.04l-.01.03a1.175,1.175,0,0,0,.4,1.47l.03.02-.01.01a8.63,8.63,0,0,0,2.05.96,9.455,9.455,0,0,0,2.77.36,4.029,4.029,0,0,1,2.57.71l.21.19-.26-.13a6.139,6.139,0,0,0-2.44-.54h-.26a8.816,8.816,0,0,1-2.66-.37,11.1,11.1,0,0,1-4.69-3.16,8.165,8.165,0,0,1-.73-.89,2.549,2.549,0,0,1-.27-.48l-.01-.01c-.06-.14-.1-.25-.13-.34a1.472,1.472,0,0,0-.3.72,2.089,2.089,0,0,0,.04.74c.4,1.66,1.91,2.52,3.49,3.2a5.111,5.111,0,0,0,.61.19l.51.11-.51.12a3.572,3.572,0,0,1-2.14-.2,10.6,10.6,0,0,1-1.35-.67c-.18-.1-.36-.2-.55-.3a12.509,12.509,0,0,0-1.45-.64c-.83-.31-1.47-.29-1.83.06l-.12.12-.07-.16a10.165,10.165,0,0,0-.51-1.05h-.01l-.01-.04v-.03a2.588,2.588,0,0,0-1.09-1.09,3.879,3.879,0,0,0-.36-.15,3.434,3.434,0,0,1-.44-.19,1.959,1.959,0,0,1-.41-.3h0l-.03-.03c-.05-.05-.09-.1-.14-.15a3.551,3.551,0,0,1-.7-1.5,3.275,3.275,0,0,1,0-1.92,1.615,1.615,0,0,1,.17-.35A2.736,2.736,0,0,0,62.17,27.31Zm15.06-.07a1.864,1.864,0,0,0,.19-1.7,1,1,0,0,1,.57-.42,1.046,1.046,0,0,1,.36-.05,1.373,1.373,0,0,1,.73.21,2.4,2.4,0,0,1,.88,2.53A1.675,1.675,0,0,0,79.5,27a1.382,1.382,0,0,0-.96-.4.487.487,0,0,0-.12.01,1.219,1.219,0,0,0-.58.23,2.542,2.542,0,0,0-.23.22l-.02.02c-.03.04-.06.07-.07.07l-.01.01-.11.14.15.03.02.01c1.23.44,1.11,1.28.95,2.18-.49-.7-.98-1.39-1.48-2.05C77.1,27.39,77.17,27.32,77.23,27.24Zm.45-1.67a1.847,1.847,0,0,1,.04,1.07,1.44,1.44,0,0,1,.67-.26c.05,0,.1-.01.14-.01a1.608,1.608,0,0,1,1.12.46,1.538,1.538,0,0,1,.12.13,1.83,1.83,0,0,0-.81-1.5,1.142,1.142,0,0,0-.91-.13A.985.985,0,0,0,77.68,25.57Zm-.33,1.95c.34.46.69.93,1.03,1.41a1.136,1.136,0,0,0-.89-1.38h0ZM81.1,43.67c.05-.02.11-.04.17-.06a3.161,3.161,0,0,1,.68-.14A2.117,2.117,0,0,0,81.1,43.67Zm5.53,1.82c-.04-.1-.08-.2-.12-.31a6.09,6.09,0,0,0-1.65-.76c-.11-.03-.24-.06-.38-.09.06.15.13.3.19.45a4.323,4.323,0,0,1,1.61.49C86.39,45.34,86.51,45.41,86.63,45.49ZM71.35,36.53l.01.01a1.591,1.591,0,0,0,.74.3.2.2,0,0,0,.08-.01,1.211,1.211,0,0,0-.68-.63,2.517,2.517,0,0,0-.89-.14h-.22a.86.86,0,0,0-.16.01,3.242,3.242,0,0,1,1.01.38A.284.284,0,0,0,71.35,36.53Zm16.34,9.79a4.3,4.3,0,0,0-.71-.77c.04.09.07.18.11.27.09.07.18.14.28.22A3.544,3.544,0,0,1,87.69,46.32Zm3.59,3.79a13.881,13.881,0,0,0-5.97-6.71c-.26-.11-.5-.22-.78-.35a15.853,15.853,0,0,0-2.1-.84,5.075,5.075,0,0,0-1.46-.22,3.263,3.263,0,0,0-1.6.38,2.176,2.176,0,0,0-1.09,2.58.57.57,0,0,0,.3.31.123.123,0,0,0,.12-.02l.13-.09.05.15a.9.9,0,0,0,.18.35.227.227,0,0,0,.16.06.161.161,0,0,0,.09-.03.4.4,0,0,0,.07-.13,3.762,3.762,0,0,1,1.4-1.94A2.288,2.288,0,0,1,82,43.25a1.755,1.755,0,0,1,1.12.37l.49.39L83,43.8a2.527,2.527,0,0,0-.77-.12,2.7,2.7,0,0,0-1.76.64c-.28.25-.51.64-.34.93a.443.443,0,0,0,.29.2.876.876,0,0,0,.64-.12,3.048,3.048,0,0,0,.51-.45,4.35,4.35,0,0,1,.38-.36A2.546,2.546,0,0,1,83.6,44a5.047,5.047,0,0,1,1.33.2,5.152,5.152,0,0,1,3.35,2.64l.24.52-.42-.39c-.27-.24-.65-.59-.87-.77a6.148,6.148,0,0,0-1.06-.73,4.262,4.262,0,0,0-1.4-.45c0,.01.01.02.01.03h0a.138.138,0,0,1-.04-.03,4.825,4.825,0,0,0-.65-.04,2.336,2.336,0,0,0-1.65.71,1.648,1.648,0,0,0-.41,1.23,1.17,1.17,0,0,0,.36.81.315.315,0,0,0,.3.01c.14-.05.22-.2.31-.36a1.08,1.08,0,0,1,.38-.44l.22-.11-.05.24a.743.743,0,0,0,.18.65,1.277,1.277,0,0,1,.89-.84,2.3,2.3,0,0,1,1.4.09,5.579,5.579,0,0,1,2.55,1.88,10.414,10.414,0,0,1,1.52,2.78,12.917,12.917,0,0,1,1.01,5.65q-.03.375-.09.72c.1.4.2.79.29,1.19a3.972,3.972,0,0,0,.2-.35,9.758,9.758,0,0,0,.36-7.14C91.67,51.12,91.48,50.59,91.28,50.11Zm-1.42,1.63a12.6,12.6,0,0,1,1,5.55c0,.05-.01.1-.01.15-.76-2.95-1.64-5.83-2.63-8.61.05.06.11.12.16.19A10.535,10.535,0,0,1,89.86,51.74Zm.77,4.03a13.826,13.826,0,0,0-.98-3.95,12.331,12.331,0,0,0-.69-1.49C89.56,52.1,90.12,53.93,90.63,55.77ZM78.53,40.29a5.328,5.328,0,0,0-2.22.32,3.558,3.558,0,0,0-1.88,2.05c-.06.19-.1.37-.14.54a3.821,3.821,0,0,1-.41,1.15c.17-.06.34-.1.48-.14h.01a1.517,1.517,0,0,0,.27-.08c.1-.05.21-.09.31-.13.27-.1.52-.19.6-.42l.1-.29.12.28a.347.347,0,0,0,.2.18.611.611,0,0,0,.46-.03,1.861,1.861,0,0,0,.54-.51l.02-.02c.03-.03.05-.07.08-.1a4.777,4.777,0,0,1,3.46-1.68c1.81-.06,3.5.94,4.85,1.74l.02.02a.035.035,0,0,1,.02.01l.06.03h0a14,14,0,0,1,5.69,6.06c-.02-.09-.04-.16-.05-.22-.06-.2-.13-.41-.2-.61-.08-.22-.17-.47-.27-.72a13.573,13.573,0,0,0-4.56-5.36,22.168,22.168,0,0,0-6.51-3.11,10.793,10.793,0,0,0-3.21-.51,7.268,7.268,0,0,0-3.5.82,3.7,3.7,0,0,0-1.91,2.84,4.511,4.511,0,0,0,.83,3.22,1.417,1.417,0,0,1-.04-.2,1.694,1.694,0,0,1,.42-1.19c.05-.06.11-.12.16-.18a1.227,1.227,0,0,0,.25-1.56,3.93,3.93,0,0,1-.15-.68,1.886,1.886,0,0,1,1.18-1.9l.59-.23-.48.42a1.777,1.777,0,0,0-.53,1.64,4.277,4.277,0,0,1,2.54-1.91,4.874,4.874,0,0,1,1.34-.18,5.856,5.856,0,0,1,2.12.4l.54.2-.58.02C78.95,40.29,78.73,40.29,78.53,40.29Zm-5.79-.92a6.093,6.093,0,0,1,.63-.3,5.781,5.781,0,0,0-2.04.85,4.155,4.155,0,0,0-1.4,1.54,2.769,2.769,0,0,0-.29,2.15,1.28,1.28,0,0,0,.94.95l.09.01.01.09a1.559,1.559,0,0,0,.34.91,1.489,1.489,0,0,0,.49.28c.06.03.12.05.18.08a4.611,4.611,0,0,1-.99-3.54A3.984,3.984,0,0,1,72.74,39.37Zm13.13-.13c-2.65-1.85-5.98-2.51-9.18-2.94-.45-.06-.9-.12-1.34-.17h-.03a31.261,31.261,0,0,1-8.21-1.81,8.749,8.749,0,0,1-4.41-3.61,3.506,3.506,0,0,0,3.08,3.91l.07.01.03.06a2.457,2.457,0,0,0,1.98,1.25,5.793,5.793,0,0,0,.61.03c.37,0,.74-.03,1.1-.06.26-.02.56-.05.84-.06h.23a2.767,2.767,0,0,1,.98.15,1.339,1.339,0,0,1,.85.89l.02.1-.09.04a.646.646,0,0,1-.27.05,1.825,1.825,0,0,1-.85-.33l-.01-.01c-.04-.02-.08-.05-.12-.07a3.1,3.1,0,0,0-1.59-.42,2.979,2.979,0,0,0-1.07.19,3.942,3.942,0,0,0,1.57.62c.16.04.34.08.54.13l.91.23-.95-.01a1.746,1.746,0,0,0-1.1.38,2.3,2.3,0,0,1,1.37.34c.11.06.21.12.32.18a3.093,3.093,0,0,0,1.24.5c.05,0,.1.01.15.01a4.6,4.6,0,0,0,.71-.09c.11-.02.22-.04.34-.06a12.125,12.125,0,0,1,1.48-.09h.02c.16,0,.36-.01.38-.01l.04-.01v.02a8.508,8.508,0,0,1,.88-.04,11.148,11.148,0,0,1,3.27.52,22.026,22.026,0,0,1,6.58,3.14,13.626,13.626,0,0,1,4.64,5.46c.1.24.19.49.27.73.07.2.14.41.21.62a2.883,2.883,0,0,1,.13.94c0,.01.01.02.01.03s.01.03.02.05c.11.27.22.57.34.91a3.858,3.858,0,0,0-.12-3.1C90.35,43.88,88.38,40.99,85.87,39.24ZM72.59,46.28l.03.02a.665.665,0,0,0,.49-.05.681.681,0,0,0,.23-.39,2.085,2.085,0,0,1-.91-.18,1.148,1.148,0,0,1-.46-.44.6.6,0,0,0,0,.19A1.038,1.038,0,0,0,72.59,46.28ZM41.79,17.36a.757.757,0,0,0-.15.01,1.012,1.012,0,0,0-.74.47,1,1,0,0,0-.14.46c0,.02.01.09.02.22a1.611,1.611,0,0,1,.77-.23c.65,0,1.1.55,1.49,1.03.36.45.71.87,1.17.87a.375.375,0,0,0,.1-.01,1.929,1.929,0,0,1-.45-.6,1.97,1.97,0,0,1-.17-.82,2.436,2.436,0,0,1,.05-.53h0a5.672,5.672,0,0,0-4.87-3.14,3.758,3.758,0,0,0-3.79,3.32,3,3,0,0,0,1.63,3,2.594,2.594,0,0,0,1.17.29,2.663,2.663,0,0,0,1.82-.75,2.193,2.193,0,0,0,.59-1.91,1.626,1.626,0,0,0-.74-.93,1.941,1.941,0,0,1-.21,2.25,1.834,1.834,0,0,1-1.33.51,2.234,2.234,0,0,1-1.48-.54,2.2,2.2,0,0,1-.67-2.42,1.211,1.211,0,0,1,.28-.51l.05-.05-.02.07a2.657,2.657,0,0,0,.51,2.76,1.965,1.965,0,0,0,1.32.49,1.63,1.63,0,0,0,1.18-.45,1.766,1.766,0,0,0,.32-1.69.88.88,0,0,1-.05.15,1.153,1.153,0,0,1-.75.68,1.267,1.267,0,0,1-.34.04,1.363,1.363,0,0,1-1.23-.77,1.729,1.729,0,0,1,.65-2.13,1.813,1.813,0,0,1,.55-.14l.01.04a1.359,1.359,0,0,0-.39.17,1.69,1.69,0,0,0-.62,1.96,1.169,1.169,0,0,0,1.04.65.863.863,0,0,0,.28-.04.934.934,0,0,0,.6-.55.764.764,0,0,0,.03-.47.851.851,0,0,1-.06-.17,1.3,1.3,0,0,1,.01-.87,1.45,1.45,0,0,1,.85-.83,1.826,1.826,0,0,1,.61-.11,2.965,2.965,0,0,1,2.29,1.56l.39.65-.56-.52A1.46,1.46,0,0,0,41.79,17.36Zm3.69-5.18h-.01a.6.6,0,0,1,.16.25c.01.04.02.08.03.13a.3.3,0,0,1,.16.01.507.507,0,0,1,.15.07,3.833,3.833,0,0,0-.29-.28C45.61,12.3,45.55,12.24,45.48,12.18Zm2.18.03c.44-.4.85-.78.67-1.43a3.432,3.432,0,0,0-.77-1.26l-.01-.01c-.11-.13-.22-.27-.32-.41a3.631,3.631,0,0,1-.49-2.17h0a3.631,3.631,0,0,1-.49,2.17c-.1.14-.21.28-.32.41l-.01.01a3.723,3.723,0,0,0-.77,1.26c-.18.65.23,1.03.67,1.43a3.225,3.225,0,0,1,.63.7,2.5,2.5,0,0,1,.29.91,2.27,2.27,0,0,1,.29-.91A3.225,3.225,0,0,1,47.66,12.21Zm-2.71-1.49a2.2,2.2,0,0,1,.13-.36c-.46.03-.93.06-1.39.11a2.7,2.7,0,0,0-.45,1.31,1.4,1.4,0,0,0,0,.29q.975-.12,1.98-.18A1.189,1.189,0,0,1,44.95,10.72Zm2.56,1.92a.507.507,0,0,1,.15-.07.433.433,0,0,1,.16-.01c.01-.05.02-.09.03-.13a.563.563,0,0,1,.17-.26h-.01c-.07.06-.13.13-.2.19C47.71,12.46,47.6,12.55,47.51,12.64Zm-2.35,7.84a7.516,7.516,0,0,0,1.04.36l.3.09a3.183,3.183,0,0,0-.46-1.34c-.04-.07-.08-.14-.12-.22a1.671,1.671,0,0,1,.1-1.89,1.35,1.35,0,0,0-.69.53,1.315,1.315,0,0,0-.16,1.09l.15.52-.34-.42a1.407,1.407,0,0,1-.28-1.24,1.908,1.908,0,0,1,.83-.98,2.18,2.18,0,0,0,.53-.47,2.787,2.787,0,0,0,.47-1.39,2.47,2.47,0,0,1-.74,1.03l-.36.27-.01.01a4.728,4.728,0,0,0-1.1.99,2.29,2.29,0,0,0-.43,1.36,1.863,1.863,0,0,0,.15.73A2.292,2.292,0,0,0,45.16,20.48Zm.35-10.79-.03-.01a1.5,1.5,0,0,0-.22-.02,2.521,2.521,0,0,0-.74.13,1.541,1.541,0,0,0-.53.34c.42-.04.85-.07,1.27-.09C45.34,9.92,45.42,9.8,45.51,9.69Zm2.72-.03a1.5,1.5,0,0,0-.22.02l-.03.01c.08.11.17.23.25.35.42.02.85.05,1.27.09a1.566,1.566,0,0,0-.52-.33A2.287,2.287,0,0,0,48.23,9.66Zm2.01,2.12a2.645,2.645,0,0,0-.46-1.32c-.46-.05-.92-.08-1.39-.11a3.844,3.844,0,0,1,.14.36,1.21,1.21,0,0,1-.26,1.17c.66.04,1.32.09,1.97.17A1.219,1.219,0,0,0,50.24,11.78ZM22.94,36.07a2.277,2.277,0,0,0-.89.14,1.211,1.211,0,0,0-.68.63c.03,0,.05.01.08.01a1.591,1.591,0,0,0,.74-.3l.01-.01a.673.673,0,0,0,.11-.07,3.242,3.242,0,0,1,1.01-.38c-.06,0-.11-.01-.16-.01A1.548,1.548,0,0,0,22.94,36.07ZM49.02,12.99a1.312,1.312,0,0,0-.07-.57.862.862,0,0,0-.11-.19c.46.03.92.08,1.37.13a.985.985,0,0,1-.53.77.657.657,0,0,1-.25.04A.448.448,0,0,1,49.02,12.99Zm.19-.51a1.386,1.386,0,0,1,.04.44.594.594,0,0,0,.18.03.467.467,0,0,0,.17-.03.6.6,0,0,0,.33-.37C49.69,12.52,49.45,12.5,49.21,12.48Zm-2.47,2.73a2.846,2.846,0,0,0,.5,1.41,2.816,2.816,0,0,0,.58.52,1.708,1.708,0,0,1,.75.87,1.024,1.024,0,0,1,0,.55,1.583,1.583,0,0,0-.24-.68,1.529,1.529,0,0,0-1.09-.68l-.23-.03.12.19c.45.74.63,1.16.23,1.89-.04.08-.08.15-.12.22a3.654,3.654,0,0,0-.51,1.56,3.654,3.654,0,0,0-.51-1.56c-.04-.07-.08-.14-.12-.22-.39-.73-.22-1.16.23-1.89l.12-.19-.23.03a1.581,1.581,0,0,0-1.09.68,1.631,1.631,0,0,0-.24.68,1.024,1.024,0,0,1,0-.55,1.631,1.631,0,0,1,.75-.87,2.337,2.337,0,0,0,.58-.52A2.674,2.674,0,0,0,46.74,15.21Zm.21,2.26-.21-.33-.21.33c-.43.69-.57,1.04-.22,1.67a1.962,1.962,0,0,0,.12.21,3.369,3.369,0,0,1,.31.66,3.369,3.369,0,0,1,.31-.66l.12-.21C47.52,18.51,47.38,18.17,46.95,17.47Zm.11-.72a2.481,2.481,0,0,1-.32-.58,2.165,2.165,0,0,1-.32.58,2,2,0,0,1-.19.22l.37-.05-.02-.04.16.02.16-.02-.02.04.37.05A2,2,0,0,1,47.06,16.75Zm14.53-2.53A8.338,8.338,0,0,0,65.99,17l.52.12a5.328,5.328,0,0,1,1.61.52,2.761,2.761,0,0,1,1.32,1.91,1.953,1.953,0,0,1-.34,1.33,8.715,8.715,0,0,1,1.1,1.28h0c0,.01.01.01.01.02a1.213,1.213,0,0,1,.1.14,1.217,1.217,0,0,0,1.2-.18,1.886,1.886,0,0,0,.7-1.13c.36-1.59-.85-3.09-1.78-4.07-.07-.07-.17-.16-.28-.27-.56-.52-1.42-1.31-.97-1.98a1.118,1.118,0,0,1,.41-.34.978.978,0,0,0,.33-.26.661.661,0,0,0-.19-.82,1.048,1.048,0,0,0-.79-.22,2.048,2.048,0,0,0-.24.05,1.3,1.3,0,0,0-.64.43,1.737,1.737,0,0,0-.08,1.83,4.8,4.8,0,0,0,1.49,1.52,8.434,8.434,0,0,1,1.02.86,2.367,2.367,0,0,1,.3,2.91.809.809,0,0,1-1.02.36l-.12-.07.1-.1a2.175,2.175,0,0,0,.36-2.2,3.394,3.394,0,0,0-1.57-1.69c-.23-.13-.47-.24-.71-.35a4.838,4.838,0,0,1-1.48-.92,4.369,4.369,0,0,1-.95-2.82c-.49.05-.78.58-.84,1.09l-.06.55-.15-.57c-.04-.13-.07-.27-.1-.4a2.045,2.045,0,0,0-.64-1.31,2.431,2.431,0,0,0,0,1.6,7.16,7.16,0,0,0,.8,1.62l.18.29-.31-.12a3,3,0,0,1-1.39-4.49c.12-.18.27-.35.4-.51a2.95,2.95,0,0,0,.61-.92,2.522,2.522,0,0,0-2.71,1.11,2.811,2.811,0,0,0,.14,3.07Zm2.09,3.17a11.785,11.785,0,0,0,1.97.84c.12.04.07.23-.05.19a12.89,12.89,0,0,1-6.21-4.41c-.18-.24-.35-.48-.52-.73a.871.871,0,0,0-.25.84,3.877,3.877,0,0,0,1.26,2.25,9.231,9.231,0,0,0,2.23,1.45,25.807,25.807,0,0,0,3.03,1.26c.23.08.46.15.69.23a16.241,16.241,0,0,1,2.28.88,3.969,3.969,0,0,1,.8.53,1.764,1.764,0,0,0,.29-1.14,2.5,2.5,0,0,0-1.21-1.75,5.212,5.212,0,0,0-1.55-.5c-.18-.04-.35-.07-.53-.12a8.592,8.592,0,0,1-4.84-3.25,2.778,2.778,0,0,1-1.14-1.48,4.069,4.069,0,0,1-.19-1.81,2.522,2.522,0,0,1,1.29-1.9,3.16,3.16,0,0,1,2.09-.33,1.789,1.789,0,0,0-1.43-.86,3.289,3.289,0,0,0-3.2,4.73A13.719,13.719,0,0,0,63.68,17.39Zm6.84,3.23c-.08-.07-.15-.14-.23-.21a1.96,1.96,0,0,1-.26.44A.684.684,0,0,0,70.52,20.62ZM48.05,16.4h0c-.13-.09-.25-.19-.37-.28a2.659,2.659,0,0,1-.74-1.03,2.693,2.693,0,0,0,.47,1.39,2.18,2.18,0,0,0,.53.47,1.864,1.864,0,0,1,.83.98,1.4,1.4,0,0,1-.28,1.24l-.34.42.15-.52a1.315,1.315,0,0,0-.16-1.09,1.3,1.3,0,0,0-.69-.53,1.637,1.637,0,0,1,.1,1.89c-.04.08-.08.15-.12.22a3.3,3.3,0,0,0-.46,1.34l.3-.09a7.516,7.516,0,0,0,1.04-.36,2.165,2.165,0,0,0,1.1-.99,1.7,1.7,0,0,0,.15-.73,2.269,2.269,0,0,0-.43-1.36A4.615,4.615,0,0,0,48.05,16.4Zm11.82,5.31a1.976,1.976,0,0,0,.18,1.24,1.393,1.393,0,0,0,.38.53,1.1,1.1,0,0,0,1.27.05,1.148,1.148,0,0,1-.83-.21,1.618,1.618,0,0,1-.61-1.26,2.951,2.951,0,0,1,.2-1.13A1.183,1.183,0,0,0,59.87,21.71Zm-10.7-1.52c.03,0,.06.01.1.01.47,0,.81-.42,1.17-.87.39-.48.84-1.03,1.49-1.03a1.611,1.611,0,0,1,.77.23c.01-.13.02-.21.02-.23a.926.926,0,0,0-.14-.46,1.012,1.012,0,0,0-.74-.47.757.757,0,0,0-.15-.01,1.563,1.563,0,0,0-1.03.45l-.56.52.39-.65a2.965,2.965,0,0,1,2.29-1.56,1.826,1.826,0,0,1,.61.11,1.479,1.479,0,0,1,.85.83,1.239,1.239,0,0,1,.01.87c-.01.03-.05.14-.06.17a.764.764,0,0,0,.03.47.934.934,0,0,0,.6.55,1.35,1.35,0,0,0,.28.04,1.169,1.169,0,0,0,1.04-.65,1.7,1.7,0,0,0-.62-1.96,1.131,1.131,0,0,0-.39-.17l-.08-.02.08-.02a.731.731,0,0,1,.13-.01.86.86,0,0,1,.49.15,1.75,1.75,0,0,1,.59,2.13,1.331,1.331,0,0,1-1.24.77,1.317,1.317,0,0,1-.34-.04,1.153,1.153,0,0,1-.75-.68c-.02-.05-.03-.1-.05-.15a1.717,1.717,0,0,0,.32,1.69,1.614,1.614,0,0,0,1.18.45,1.965,1.965,0,0,0,1.32-.49,2.652,2.652,0,0,0,.51-2.76l-.02-.07.05.05a1.213,1.213,0,0,1,.3.59,2.392,2.392,0,0,1-.69,2.34,2.215,2.215,0,0,1-1.48.54,1.817,1.817,0,0,1-1.33-.51,1.943,1.943,0,0,1-.21-2.25,1.746,1.746,0,0,0-.74.93,2.193,2.193,0,0,0,.59,1.91,2.663,2.663,0,0,0,1.82.75,2.594,2.594,0,0,0,1.17-.29,3.013,3.013,0,0,0,1.63-3,3.758,3.758,0,0,0-3.79-3.32,5.672,5.672,0,0,0-4.87,3.14h0a2.436,2.436,0,0,1,.05.53,1.97,1.97,0,0,1-.17.82A1.546,1.546,0,0,1,49.17,20.19ZM55.3,6.58a1.075,1.075,0,0,0-.01-.31,1.3,1.3,0,0,0,.46.09.862.862,0,0,0,.77-.44,1.1,1.1,0,0,0-.01-1.07,1.394,1.394,0,0,1,.41.5,1.075,1.075,0,0,1-.05,1.06.82.82,0,0,1-.66.34.717.717,0,0,1-.29-.06l-.14-.07-.02.15a.967.967,0,0,0,.21.71.859.859,0,0,1-.4-.21.824.824,0,0,1-.28-.65V6.59h.02Zm.81-.05a.277.277,0,0,0,.09.01.606.606,0,0,0,.48-.25.8.8,0,0,0,.13-.46,1.215,1.215,0,0,1-.09.2A1.068,1.068,0,0,1,56.11,6.53Zm-.6.23a.235.235,0,0,0,.02.08.277.277,0,0,1,.01-.09l.02-.19h-.03V6.6Zm-4.22,2.7c.04.1.08.19.13.31s.11.25.19.43l.01.02-.01.01c.07.17.14.34.19.5a3.672,3.672,0,0,1-.18,2.92,2.087,2.087,0,0,1-1.8,1.1,1.942,1.942,0,0,1-.24-.02,2.049,2.049,0,0,1-1.73-1.65c-.02-.1-.03-.2-.04-.28a.127.127,0,0,0-.06-.01h-.04a.474.474,0,0,0-.28.29,1.874,1.874,0,0,0,.24,1.55,2.93,2.93,0,0,0,1.84,1.34,2.558,2.558,0,0,0,.47.04,3.023,3.023,0,0,0,2.79-2.18,6.516,6.516,0,0,0,.18-2.44c-.01-.13-.02-.27-.03-.4v-.03a6.911,6.911,0,0,1,.02-2.08,1.521,1.521,0,0,1,1.02-1.24.784.784,0,0,0-.39-.24,1.122,1.122,0,0,0-.84.1,2.073,2.073,0,0,0-.78,1.35l-.19.64-.01-.69a4.65,4.65,0,0,1,.56-2.45l.01-.01c0-.01.01-.01.01-.02l.01-.02c.04-.06.08-.13.13-.2a2.8,2.8,0,0,1,1.82-1.32,1.149,1.149,0,0,1,.21-.02,1.423,1.423,0,0,1,.39.05.82.82,0,0,1,.55.69,1.215,1.215,0,0,1-.07.56,1.146,1.146,0,0,0,.41.08.629.629,0,0,0,.58-.33,1.083,1.083,0,0,0-.3-1.25l-.35-.38.48.21a1.915,1.915,0,0,1,.95.86,1.267,1.267,0,0,1-.07,1.28,1.047,1.047,0,0,1-.85.44.908.908,0,0,1-.23-.03.764.764,0,0,0,.34.57l.24.15-.28.05a1.052,1.052,0,0,1-.86-.28,1.034,1.034,0,0,1-.33-.59.751.751,0,0,0-.19.64,1.491,1.491,0,0,0,.98,1.09,2.325,2.325,0,0,0,.73.12,2.077,2.077,0,0,0,1.05-.29,2.681,2.681,0,0,0,1.24-1.78,3.759,3.759,0,0,0-1.59-3.35,3.269,3.269,0,0,0-1.73-.46,4.834,4.834,0,0,0-3.18,1.28A5.272,5.272,0,0,0,51.29,9.46Zm3.92-3.94a.606.606,0,0,0-.4-.5,1.412,1.412,0,0,0-.33-.04.915.915,0,0,0-.17.01,2.381,2.381,0,0,0-.75.29,1.812,1.812,0,0,1,.31-.05h.03a1.948,1.948,0,0,1,.87.23,1.1,1.1,0,0,1,.4.43A.842.842,0,0,0,55.21,5.52Zm-10.68,6.9a1.328,1.328,0,0,0-.07.57c-.05.13-.25.18-.41.18a.935.935,0,0,1-.25-.04.968.968,0,0,1-.53-.76c.45-.06.91-.1,1.36-.14A.692.692,0,0,0,44.53,12.42Zm-.26.07c-.24.02-.48.05-.72.07a.587.587,0,0,0,.33.36.431.431,0,0,0,.17.03.594.594,0,0,0,.18-.03A2.221,2.221,0,0,1,44.27,12.49ZM21.79,45.63a4.511,4.511,0,0,0,.83-3.22,3.67,3.67,0,0,0-1.91-2.84,7.268,7.268,0,0,0-3.5-.82,10.793,10.793,0,0,0-3.21.51,21.683,21.683,0,0,0-6.51,3.11,13.416,13.416,0,0,0-4.56,5.36c-.1.25-.19.5-.27.72-.07.2-.14.4-.2.61a1.883,1.883,0,0,0-.05.22A14.053,14.053,0,0,1,8.1,43.22h0l.06-.03c.01,0,.01-.01.02-.01l.02-.02c1.35-.8,3.05-1.8,4.85-1.74a4.777,4.777,0,0,1,3.46,1.68c.03.03.05.07.08.1l.02.02a1.744,1.744,0,0,0,.54.51.614.614,0,0,0,.46.03.316.316,0,0,0,.2-.18l.12-.28.1.29c.08.23.33.32.6.42a2.88,2.88,0,0,1,.31.13,1.291,1.291,0,0,0,.27.08h.01a2.773,2.773,0,0,1,.48.14,3.821,3.821,0,0,1-.41-1.15c-.04-.17-.08-.35-.14-.54a3.558,3.558,0,0,0-1.88-2.05,5.171,5.171,0,0,0-2.22-.32c-.2,0-.42,0-.63-.01l-.58-.02.54-.2a6.076,6.076,0,0,1,2.12-.4,4.874,4.874,0,0,1,1.34.18,4.277,4.277,0,0,1,2.54,1.91,1.761,1.761,0,0,0-.53-1.64l-.48-.42.59.23a1.916,1.916,0,0,1,1.18,1.9,3.93,3.93,0,0,1-.15.68,1.227,1.227,0,0,0,.25,1.56c.05.06.11.12.16.18a1.694,1.694,0,0,1,.42,1.19A1.251,1.251,0,0,1,21.79,45.63ZM2.57,58.06a5.9,5.9,0,0,1-.1-.75,12.893,12.893,0,0,1,1.01-5.65A10.7,10.7,0,0,1,5,48.88,5.683,5.683,0,0,1,7.55,47a2.3,2.3,0,0,1,1.4-.09,1.3,1.3,0,0,1,.89.84.819.819,0,0,0,.18-.65l-.05-.24.22.11a1.08,1.08,0,0,1,.38.44.746.746,0,0,0,.31.36.317.317,0,0,0,.3-.01,1.17,1.17,0,0,0,.36-.81,1.584,1.584,0,0,0-.41-1.23,2.354,2.354,0,0,0-1.65-.71,4.122,4.122,0,0,0-2.08.49,7.272,7.272,0,0,0-1.06.73c-.21.18-.6.52-.87.77l-.42.39.24-.52a5.147,5.147,0,0,1,3.35-2.64A3.977,3.977,0,0,1,9.97,44a2.584,2.584,0,0,1,1.65.52,4.35,4.35,0,0,1,.38.36,2.7,2.7,0,0,0,.51.45.918.918,0,0,0,.64.12.443.443,0,0,0,.29-.2c.18-.29-.05-.69-.34-.93a2.7,2.7,0,0,0-1.76-.64,2.435,2.435,0,0,0-.77.12l-.59.19.49-.39a1.775,1.775,0,0,1,1.12-.37,2.288,2.288,0,0,1,1.22.36,3.762,3.762,0,0,1,1.4,1.94.4.4,0,0,0,.07.13.11.11,0,0,0,.09.03.314.314,0,0,0,.16-.06.778.778,0,0,0,.18-.35l.05-.15.13.09a.128.128,0,0,0,.12.02.538.538,0,0,0,.3-.31,2.176,2.176,0,0,0-1.09-2.58,3.291,3.291,0,0,0-1.6-.38,5.565,5.565,0,0,0-1.46.22,15.853,15.853,0,0,0-2.1.84c-.28.13-.52.24-.78.35a13.832,13.832,0,0,0-5.97,6.71c-.2.48-.38,1.01-.57,1.62a9.808,9.808,0,0,0,.36,7.14,2.706,2.706,0,0,0,.21.37C2.37,58.84,2.47,58.45,2.57,58.06Zm9.88-14.39a2.089,2.089,0,0,0-.85-.21,3.161,3.161,0,0,1,.68.14C12.34,43.63,12.4,43.65,12.45,43.67Zm10.08,1.9a1.559,1.559,0,0,0,.34-.91l.01-.09.09-.01a1.264,1.264,0,0,0,.94-.95,2.764,2.764,0,0,0-.29-2.15,4.233,4.233,0,0,0-1.4-1.54,5.505,5.505,0,0,0-2.04-.85,6.093,6.093,0,0,1,.63.3,3.924,3.924,0,0,1,2.03,3.02,4.611,4.611,0,0,1-.99,3.54c.06-.03.12-.05.18-.08A1.44,1.44,0,0,0,22.53,45.57Zm-1.4.1a2.085,2.085,0,0,1-.91.18.681.681,0,0,0,.23.39.665.665,0,0,0,.49.05l.03-.02a1.058,1.058,0,0,0,.62-.86v-.19A1.052,1.052,0,0,1,21.13,45.67Zm-14.18-.2c.11-.07.22-.14.33-.2a4.423,4.423,0,0,1,1.63-.49c.06-.15.13-.3.19-.45-.15.03-.28.07-.39.1a6.234,6.234,0,0,0-1.63.74C7.03,45.27,6.99,45.37,6.95,45.47Zm-.76.56c.1-.09.21-.17.3-.24.04-.09.07-.18.11-.27a4.993,4.993,0,0,0-.74.79C5.98,46.21,6.1,46.11,6.19,46.03Zm-2.5,5.71a10.534,10.534,0,0,1,1.49-2.72c.06-.08.12-.15.18-.22-1,2.8-1.88,5.7-2.65,8.67-.01-.06-.01-.12-.02-.19A12.728,12.728,0,0,1,3.69,51.74Zm.21.08a13.676,13.676,0,0,0-.98,4.02c.52-1.89,1.09-3.76,1.7-5.58A14.5,14.5,0,0,0,3.9,51.82Zm81.7-4.69h0c-.06-.01-.12-.03-.17-.04A1.046,1.046,0,0,0,85.6,47.13Z" transform="translate(-0.003)"/></svg>