<svg xmlns="http://www.w3.org/2000/svg" width="22" height="22" viewBox="0 0 22 22"><defs><style>.a{fill:#fff;}.b{fill:none;}</style></defs><g transform="translate(3.361 4.229)"><path class="a" d="M12.061-73.842c0,3.331,2.791,6.606,7.2,9.421a1.281,1.281,0,0,0,.563.211,1.346,1.346,0,0,0,.571-.211c4.4-2.815,7.193-6.09,7.193-9.421a4.436,4.436,0,0,0-4.433-4.722,3.928,3.928,0,0,0-3.331,1.743,3.926,3.926,0,0,0-3.331-1.743A4.436,4.436,0,0,0,12.061-73.842Zm1.259,0a3.181,3.181,0,0,1,3.159-3.463,3.271,3.271,0,0,1,2.815,1.7c.211.313.344.4.532.4s.3-.094.532-.4a3.369,3.369,0,0,1,2.815-1.7,3.181,3.181,0,0,1,3.159,3.463c0,2.908-3.073,6.044-6.341,8.217a.461.461,0,0,1-.164.094.392.392,0,0,1-.156-.094C16.392-67.8,13.319-70.934,13.319-73.842Z" transform="translate(-12.061 78.565)"/></g><rect class="b" width="22" height="22"/></svg>