<svg xmlns="http://www.w3.org/2000/svg" width="24" height="24" viewBox="0 0 24 24"><defs><style>.a{fill:#305c8c;stroke:#2f5a89;stroke-width:0.5px;}.b{fill:none;}</style></defs><g transform="translate(-19 -252.447)"><path class="a" d="M29.648,332.713a5.554,5.554,0,1,1,0-9.875.272.272,0,0,0,.25-.483h0a6.1,6.1,0,1,0,0,10.84.272.272,0,0,0-.25-.483Z" transform="translate(0 -61.759)"/><path class="a" d="M304.283,397.9a.272.272,0,0,0-.471.271,5.573,5.573,0,0,1,0,5.524.272.272,0,1,0,.471.271h0a6.116,6.116,0,0,0,0-6.066Z" transform="translate(-271.893 -134.917)"/><path class="a" d="M215.357,268.143a5.555,5.555,0,1,1-6.842-7.415l.818-.228.678.844a.272.272,0,0,0,.424,0l.678-.844.817.228a5.566,5.566,0,0,1,3.427,7.415Zm-6.619-9.25a.016.016,0,0,1,0-.01v-.007h0l.395-.877h0a.016.016,0,0,1,.015-.01H211.3a.016.016,0,0,1,.015.01h0l.395.877h0v.007a.016.016,0,0,1,0,.01h0l-.906,1.127,0,0-.577.718-.577-.717,0,0-.906-1.127Zm5.8,2.812a6.073,6.073,0,0,0-2.442-1.5l-.01,0-.6-.167.648-.806h0a.56.56,0,0,0,.074-.58h0l-.395-.876h0a.56.56,0,0,0-.51-.33h-2.155a.56.56,0,0,0-.51.33h0l-.395.876h0a.559.559,0,0,0,.074.58l.648.806-.6.167-.01,0a6.112,6.112,0,1,0,6.182,1.5Z" transform="translate(-176.077)"/><path class="a" d="M312.986,303.871h0Z" transform="translate(-280.748 -44.637)"/></g><rect class="b" width="24" height="24"/></svg>