<svg xmlns="http://www.w3.org/2000/svg" width="68" height="68" viewBox="0 0 68 68"><defs><style>.a{fill:rgba(159,180,202,0.24);}.b{fill:#fff;}.c{fill:none;}</style></defs><g transform="translate(0.5 0.627)"><circle class="a" cx="31.5" cy="31.5" r="31.5" transform="translate(2.5 2.373)"/><g transform="translate(0 0)"><path class="b" d="M42.175-18.188A33.662,33.662,0,0,0,75.611-51.623,33.712,33.712,0,0,0,42.143-85.059,33.676,33.676,0,0,0,8.74-51.623,33.683,33.683,0,0,0,42.175-18.188Zm0-5.573a27.728,27.728,0,0,1-27.83-27.863,27.721,27.721,0,0,1,27.8-27.863,27.826,27.826,0,0,1,27.9,27.863A27.735,27.735,0,0,1,42.175-23.761Zm-5.769-15.8L53.943-49.919a1.921,1.921,0,0,0,0-3.311L36.406-63.653c-1.344-.787-3.081-.164-3.081,1.311v21.471C33.325-39.364,34.964-38.708,36.406-39.56Z" transform="translate(-8.74 85.059)"/></g></g><rect class="c" width="68" height="68"/></svg>