<svg xmlns="http://www.w3.org/2000/svg" viewBox="0 0 30 30" width="30" height="30">
	<style>
		tspan { white-space:pre }
		.shp0 { fill: #305c8c } 
		.shp1 { fill: none } 
	</style>
	<path id="Layer" fill-rule="evenodd" class="shp0" d="M5.06 23.24L5.06 11.75C5.06 9.46 6.22 8.31 8.54 8.31L10.31 8.32C10.34 7.73 10.48 7.16 10.72 6.64C10.97 6.11 11.31 5.63 11.74 5.23C12.16 4.84 12.66 4.52 13.2 4.31C13.74 4.1 14.32 3.99 14.9 4C15.48 3.99 16.06 4.1 16.6 4.31C17.14 4.52 17.64 4.84 18.06 5.23C18.49 5.63 18.83 6.11 19.07 6.64C19.32 7.16 19.46 7.73 19.49 8.32L21.27 8.32C23.57 8.32 24.75 9.47 24.75 11.75L24.75 23.23C24.75 25.52 23.59 26.67 21.6 26.67L8.54 26.67C6.22 26.68 5.06 25.53 5.06 23.24ZM14.9 5.69C14.9 5.69 14.9 5.69 14.9 5.69C14.9 5.69 14.9 5.69 14.9 5.69L14.9 5.69ZM14.9 5.69C14.54 5.68 14.19 5.74 13.86 5.87C13.52 5.99 13.22 6.18 12.96 6.43C12.7 6.67 12.49 6.96 12.34 7.29C12.19 7.61 12.11 7.96 12.09 8.31L17.71 8.31C17.69 7.96 17.61 7.61 17.46 7.29C17.31 6.96 17.1 6.67 16.84 6.43C16.58 6.18 16.27 5.99 15.94 5.87C15.61 5.74 15.25 5.68 14.9 5.69ZM21.56 24.88C22.33 24.88 22.96 24.29 22.96 23.14L22.96 11.84C22.99 11.6 22.97 11.37 22.89 11.14C22.81 10.92 22.69 10.71 22.52 10.55C22.36 10.38 22.15 10.25 21.93 10.17C21.71 10.1 21.47 10.07 21.23 10.1L8.56 10.1C8.33 10.07 8.09 10.09 7.87 10.17C7.65 10.25 7.44 10.38 7.28 10.55C7.11 10.71 6.99 10.92 6.91 11.14C6.84 11.37 6.81 11.6 6.84 11.84L6.84 23.14C6.81 23.38 6.84 23.62 6.91 23.84C6.99 24.06 7.11 24.27 7.28 24.44C7.44 24.6 7.65 24.73 7.87 24.81C8.09 24.89 8.33 24.91 8.56 24.89L21.56 24.88Z" />
	<path id="Layer" class="shp1" d="M0 0L30 0L30 30L0 30L0 0Z" />
</svg>