<svg xmlns="http://www.w3.org/2000/svg" width="18" height="18" viewBox="0 0 18 18"><defs><style>.a{fill:#fff;}.b{fill:none;}</style></defs><path class="a" d="M14.752-75.061h8.625c1.312,0,2.081-.762,2.081-2.272v-7.584a2.027,2.027,0,0,0-2.3-2.272H21.985a3.007,3.007,0,0,0-3.034-2.85,3.007,3.007,0,0,0-3.034,2.85H14.752a2.021,2.021,0,0,0-2.3,2.272v7.584A2.021,2.021,0,0,0,14.752-75.061Zm4.2-13.864A1.815,1.815,0,0,1,20.8-87.189H17.1A1.815,1.815,0,0,1,18.951-88.925ZM14.767-76.241a1.022,1.022,0,0,1-1.136-1.15v-7.467a1.022,1.022,0,0,1,1.136-1.15h8.368a1.031,1.031,0,0,1,1.143,1.15v7.467c0,.762-.418,1.15-.923,1.15Z" transform="translate(-10.392 91.039)"/><rect class="b" width="18" height="18"/></svg>