<svg xmlns="http://www.w3.org/2000/svg" width="34" height="34" viewBox="0 0 34 34"><defs><style>.a{fill:#305c8c;}</style></defs><path class="a" d="M25.74-51.059a17.115,17.115,0,0,0,17-17,17.14,17.14,0,0,0-17.017-17,17.122,17.122,0,0,0-16.983,17A17.126,17.126,0,0,0,25.74-51.059Zm0-2.833A14.1,14.1,0,0,1,11.59-68.059,14.1,14.1,0,0,1,25.724-82.225,14.148,14.148,0,0,1,39.907-68.059,14.1,14.1,0,0,1,25.74-53.892Zm8.6-14.183a1.321,1.321,0,0,0-.483-.967l-5.633-5.65a1.2,1.2,0,0,0-.867-.333,1.175,1.175,0,0,0-1.2,1.2,1.23,1.23,0,0,0,.367.883l2.1,2.067,2,1.683-3.517-.133h-8.7a1.2,1.2,0,0,0-1.233,1.25,1.2,1.2,0,0,0,1.233,1.25h8.7l3.533-.133-2.017,1.7-2.1,2.05a1.231,1.231,0,0,0-.367.9,1.2,1.2,0,0,0,1.2,1.217,1.207,1.207,0,0,0,.867-.35l5.633-5.65A1.331,1.331,0,0,0,34.34-68.075Z" transform="translate(-8.74 85.059)"/></svg>