<svg xmlns="http://www.w3.org/2000/svg" width="46" height="18" viewBox="0 0 46 18"><defs><style>.a{fill:#ffc7a7;}.b{fill:none;}</style></defs><g transform="translate(-313 -80)"><g transform="translate(332 81.013)"><path class="a" d="M349.4,353.495a5.4,5.4,0,0,1-5.4-5.4,5.4,5.4,0,0,1-5.4,5.4,5.4,5.4,0,0,1,5.4,5.4A5.4,5.4,0,0,1,349.4,353.495Z" transform="translate(-338.591 -348.092)"/></g><g transform="translate(314.384 90.396)"><path class="a" d="M342.629,350.111a2.019,2.019,0,0,1-2.019-2.019,2.019,2.019,0,0,1-2.019,2.019,2.018,2.018,0,0,1,2.019,2.019A2.019,2.019,0,0,1,342.629,350.111Z" transform="translate(-338.591 -348.092)"/></g><g transform="translate(354.003 94.016)"><path class="a" d="M341.39,349.492a1.4,1.4,0,1,0-2.8,0,1.4,1.4,0,0,0,2.8,0Z" transform="translate(-338.591 -348.092)"/></g></g><rect class="b" width="46" height="18"/></svg>