<svg xmlns="http://www.w3.org/2000/svg" viewBox="0 0 13 11" width="13" height="11">
	<style>
		tspan { white-space:pre }
		.shp0 { fill: #305c8c } 
	</style>
	<g id="Layer">
		<path id="Layer" class="shp0" d="M0.13 5.75C0.13 5.79 0.13 5.83 0.14 5.88C0.15 5.92 0.17 5.96 0.18 6C0.2 6.04 0.22 6.08 0.25 6.11C0.27 6.15 0.3 6.18 0.34 6.21L4.94 10.79C4.97 10.82 5 10.85 5.03 10.88C5.07 10.91 5.11 10.93 5.15 10.95C5.19 10.96 5.23 10.98 5.27 10.99C5.31 11 5.36 11 5.4 11C5.48 11 5.56 10.99 5.63 10.96C5.71 10.93 5.77 10.88 5.83 10.83C5.88 10.77 5.93 10.71 5.96 10.63C5.99 10.56 6 10.48 6 10.4C6 10.36 6 10.32 5.99 10.28C5.99 10.24 5.97 10.2 5.96 10.17C5.95 10.13 5.93 10.09 5.91 10.06C5.89 10.02 5.86 9.99 5.83 9.96L4.28 8.38L1.95 6.26L3.62 6.36L12.39 6.36C12.47 6.36 12.55 6.35 12.63 6.32C12.7 6.29 12.77 6.24 12.83 6.18C12.89 6.13 12.93 6.06 12.96 5.98C12.99 5.9 13 5.82 13 5.74C13 5.66 12.99 5.58 12.96 5.5C12.93 5.43 12.89 5.36 12.83 5.3C12.77 5.24 12.7 5.2 12.63 5.17C12.55 5.14 12.47 5.12 12.39 5.13L3.62 5.12L1.95 5.22L4.28 3.1L5.83 1.52C5.86 1.49 5.89 1.46 5.91 1.42C5.93 1.39 5.95 1.35 5.96 1.32C5.98 1.28 5.99 1.24 5.99 1.2C6 1.16 6 1.12 6 1.08C6 1 5.99 0.92 5.96 0.85C5.93 0.77 5.88 0.71 5.83 0.65C5.77 0.6 5.71 0.55 5.63 0.52C5.56 0.49 5.48 0.48 5.4 0.48C5.36 0.48 5.32 0.48 5.27 0.49C5.23 0.5 5.19 0.51 5.15 0.53C5.12 0.55 5.08 0.57 5.04 0.59C5.01 0.62 4.98 0.64 4.95 0.67L0.34 5.27C0.31 5.3 0.28 5.34 0.25 5.37C0.22 5.41 0.2 5.45 0.18 5.49C0.16 5.53 0.15 5.57 0.14 5.61C0.13 5.66 0.13 5.7 0.13 5.75Z" />
	</g>
</svg>